<?xml version="1.0" encoding="utf-8"?>
<!-- Generator: Adobe Illustrator 26.1.0, SVG Export Plug-In . SVG Version: 6.00 Build 0)  -->
<svg version="1.1" id="Layer_1" xmlns="http://www.w3.org/2000/svg" xmlns:xlink="http://www.w3.org/1999/xlink" x="0px" y="0px"
	 viewBox="0 0 244 692" style="enable-background:new 0 0 244 692;" xml:space="preserve">
<style type="text/css">
	.st0{fill:#040101;}
	.st1{fill:#AE5929;}
	.st2{fill:#8F4B28;}
	.st3{fill:#7B3A16;}
	.st4{fill:#EB9E41;}
	.st5{fill:#AA6A1B;}
	.st6{fill:#CCCD55;}
	.st7{fill:#95B536;}
	.st8{fill:#4D210C;}
	.st9{fill:#FDE681;}
	.st10{fill:#AF8A25;}
	.st11{fill:#F2997C;}
	.st12{fill:#F9B391;}
	.st13{fill:#FEFCF4;}
	.st14{fill:#C4AE34;}
	.st15{fill:url(#SVGID_1_);}
	.st16{fill:url(#SVGID_00000179625511284747190750000017199875758679567280_);}
</style>
<path class="st0" d="M38,118.7c3.1-0.9,6.5-1.3,9.7-2.1c0.4,1,0.6,1.9,0.8,2.9c-1.2,0.1-2.4,0.1-3.7,0.3
	C42.5,119.7,40.2,119.2,38,118.7z"/>
<path class="st1" d="M78.2,39.6l1.1-1.8c1.5,3.7,0.9,12.4,4.2,14.3l2.3,0.2l-0.5,0.8c-1.1-0.1-1.4-0.3-2.4,0.2
	c-0.6,1.3-0.4,2.4,0,3.7c-1,0.2-1.9,0.5-2.9,0.5c0.4-0.3,0.8-0.6,1.1-0.9C81.7,54.1,78.8,42.9,78.2,39.6z"/>
<path class="st2" d="M134.1,188.4c0.8,9.6-4.4,11.3-5.3,16.8c-0.5,0.3-1.1,0.6-1.5,1.1c-1.6,0.3-2.8,1.7-4.3,2.5
	c-0.6-0.3-1.3-0.6-2-0.8c0,0,0.1,0,0.1-0.1c4.7-2.4,9.1-6.7,10.9-11.8c0.9-2.4,1-4.8,1-7.3L134.1,188.4z"/>
<path class="st0" d="M166.4,108.4c1.8-0.7,6.5-2.7,8.2-2c-1.1,2.3-6.6,2.4-7.5,5.1c1.4,1.3,4.6,0.8,6.5,0.7c1.1,0,2.2-0.1,3.3,0
	l-0.1,0.1c-2.8,1.5-7,2-9.3,3.6l0.1,0.4c2.1,1.4,5.3,0.7,7.2,1.9c-2.3,1.5-6.9,1.4-9.6,1.5l-0.9-0.4c-1.4-2.7-2.4-5.5-3.9-8.2
	l1.8-0.7C163.5,109.7,165.2,109.3,166.4,108.4z"/>
<path class="st2" d="M153.3,69.6c2.4-1.4,4.5-3.9,6.4-5.8c7.2-7.2,14.1-14.3,24.6-16c5.9-1,17.5-0.4,22.5,3.2
	c1.4,1.9,0.6,5.7,0.5,7.9l-1.6-2.3c0-1.5,0-2.9-0.1-4.4c-10.5-3.2-21.5-4.3-31.6,1c-8,4.2-11.9,12.2-18.9,17.6
	C154.6,70.2,154,69.9,153.3,69.6z"/>
<path class="st3" d="M164.2,119.3l0.9,0.4c2.2,10.3,1.2,21.8-4.6,30.7c-8.1,12.5-22.1,18.5-28,32.9c0.6,1.7,1.2,3.4,1.6,5.1l-1,0.4
	c-1.1-3.7-3.3-6.8-4.5-10.4c-1.2-3.4-1-8.3-3.1-11.2c-0.8-1.2-2.3-2.4-3.8-2.5c-2.6-0.3-4.9,1.8-6.8,3.2l-0.1-0.2
	c1.7-3.2,3.6-4.2,6.9-5.3c1.2,0.5,2.3,1.1,3.4,1.8c1.9,3.4,2.4,6.6,3.5,10.2c0.6,2,1.2,4,2.2,5.8l0.4,0c2.9-4,5.2-7.9,8.7-11.4
	c5-5.1,11.1-9.4,15.7-14.9c8.3-9.9,9.6-21.8,8.4-34.3L164.2,119.3z"/>
<path class="st3" d="M205.7,56.5l1.6,2.3c-1.1,13.7-6,27.2-16.6,36.4c-7,6-15.9,9-25.1,8.9c0.1,1.2-0.1,3.2,0.6,4.2l0.2,0.1
	c-1.2,0.9-2.9,1.3-4.2,1.9c-0.2-0.9-0.5-1.8-0.4-2.7c1.1-1.2,1.9-2.6,2.8-4c-1.9-7.8-5.1-14.6-9.5-21.3l0.5-0.3
	c0.2,0.1,0.4,0.3,0.7,0.4c0.1,0,0.7,0.2,0.8,0.1c2.6-1,12.3-14.4,15.3-17.6c1.9-2,4-3.7,6.4-5.2c-0.5,1.8-4.7,4.5-6.2,6
	c-5.6,5.7-9.7,12.7-15.5,18.3c1.3,2.2,2.5,5.1,4.3,6.9c0.9,2.2,1.9,4.5,2.4,6.8c0.3,1,0.5,2.3,1.1,3.1c0.4,0.5,1,0.8,1.6,0.9
	c1.3,0.2,3.1-0.3,4.5-0.5c6.4-0.9,11.8-2.5,17.1-6.5c11.5-8.7,15.7-21.7,17.7-35.5L205.7,56.5z"/>
<path class="st4" d="M76.9,33.7c5.4,0.8,9.2,0.4,14-2.2c0.2,3.7,1.2,7.4,1.3,11.1l0.6,3.3L92.7,48l-0.3,0.3
	c-1.4-0.2-2.8-0.7-4.2-0.1c-0.3,0.6-0.4,0.7-0.2,1.4c0.4,1.3,1.9,2.5,2.9,3.4c-1.7-0.2-3.4-0.5-5.1-0.6l-2.3-0.2
	c-3.3-1.9-2.7-10.6-4.2-14.3l-1.1,1.8L76.9,33.7z"/>
<path class="st5" d="M76.9,33.7c5.4,0.8,9.2,0.4,14-2.2c0.2,3.7,1.2,7.4,1.3,11.1c-1-1.2-1.4-5.9-1.7-7.6
	c-2.8,1.4-10.6,2.4-11.1,2.9l-1.1,1.8L76.9,33.7z"/>
<path class="st6" d="M162.2,119c0.7,0.3,1.3,0.6,2,0.6c1.1,12.5-0.2,24.4-8.4,34.3c-4.6,5.5-10.7,9.8-15.7,14.9
	c-3.5,3.6-5.9,7.4-8.7,11.4l-0.4,0c-1-1.8-1.6-3.8-2.2-5.8c3-2.5,5.7-5.6,8.6-8.3c9-8.4,18.6-16.2,22.3-28.5
	c0.4-1.4,1.1-3.1,1.3-4.6c0.1-0.9-0.1-1.1-0.7-1.8C162,126.9,162.6,123.6,162.2,119z"/>
<path class="st2" d="M6.8,50.2c7.7-1.5,13.8-4.2,21.8-2.9C44.3,49.9,55,61.8,63.9,74.1l-1.1,1.3C54.9,64.8,44,52.7,30.6,49.7
	c-6.3-1.4-11.2-0.2-17.3,1c-1.4,0.3-3.5,0.2-4.7,0.9C7,62.9,11.7,77.7,18.5,86.8C24,94.1,32.1,99.7,41.3,101
	c2.7,0.4,6.3,0.5,8.9-0.5c-0.2,1-0.4,2-0.7,3c-2.1,0-4.2,0-6.3-0.2c-10-0.9-18.2-5.9-24.6-13.6C10,79.3,5.6,63.6,6.8,50.2z"/>
<path class="st3" d="M51.6,119l0.3,0.2c-0.2,1.1-0.4,2.3-0.6,3.4c-0.9,0.8-1,1.3-1.1,2.5c-0.2,1.9,0.1,3.9,0.2,5.8
	c0.5,9.3,2.9,16.7,9.2,23.7c8.3,9.3,18.9,15.4,24.9,26.9c0.9-2,2.8-5.2,3-7.3c0.4-1.6,0.7-3.1,1.1-4.7c0.9-3.3,1.9-5.2,4.8-6.9
	c3.2,0.6,5.4,1.2,7.3,4.1c0.6,0.9,1.2,1.9,1.8,2.9c-2.1-2-4.8-5-8-4.9c-1.2,0-2.3,0.6-3.1,1.5c-2.8,3.2-2.5,8.6-4.1,12.4
	c0,0.1,0,0.1-0.1,0.2c-2.3,8-7.9,9.8-2.6,19.4c3.3,5.9,9.4,9.9,15.8,11.7c6.3,1.8,14.5,1.4,20.3-1.9c0.1,0,0.1-0.1,0.2-0.1
	c0.7,0.3,1.4,0.5,2,0.8c-3.4,1.8-7.2,2.8-10.9,3.9c0,0-0.1,0-0.1,0c-2.8-0.4-5.6-0.3-8.4-0.6c-2.3-0.3-4.5-0.9-6.8-1.3
	c-1-0.7-2.2-1.2-3.2-1.7c-2.7-1.6-4.8-4.4-7.6-5.7l-0.6,0.3l-0.2,1.7c-0.1-4.6-3.3-7.6-4-12c-0.5-3.5,2.1-7,1.2-10.2
	c-3.5-13.3-26.9-23.4-31.9-39c-2.5-8.1-1.3-15.8-2.3-23.9c-0.6-0.5-2.7-0.5-3.6-0.5c1.2-0.1,2.4-0.2,3.7-0.3
	C49.3,118.9,50.5,119,51.6,119z"/>
<path class="st7" d="M84.4,181.6c-6-11.5-16.6-17.6-24.9-26.9c-6.2-7-8.7-14.4-9.2-23.7c-0.1-1.9-0.3-4-0.2-5.8
	c0.1-1.2,0.2-1.7,1.1-2.5c0.8,5.6,2.7,10.7,7.4,14.2c3.9,2.9,8.2,3.6,13,3.1c0,0-0.1,0.1-0.1,0.1c-0.7,0.8-2.2,1-3.2,1
	c-3.9,0.1-6.8-2.6-9.4-2.8c-0.5,1.2-0.4,1.9,0.1,3.1c4.3,10.6,13,17.5,20.9,25.3c2.5,2.5,4.7,5.4,7.5,7.6
	C87.3,176.4,85.3,179.6,84.4,181.6z"/>
<path class="st8" d="M124.1,32.3c0-0.1,0-0.2,0-0.3c-0.4-4-4.7-4.3-3.8-9.9c0.3-1.7,1-3.4,2-4.8c1.9-2.5,4.9-4,7.9-4.4
	c3.7-0.5,7.6,0.7,10.5,3c2.3,1.8,3.9,4.3,4.2,7.2c0.3,2.4-0.1,4.6-1.7,6.5c-1.8,2.1-6.9,3.8-7.4,6.1l-0.3-1.1
	c-0.2-0.2-0.4-0.3-0.7-0.4C133.8,33.8,124.9,32.1,124.1,32.3z"/>
<path class="st2" d="M132.2,13.6c2.7,0.2,5.1,0.7,7.3,2.5c1.6,1.3,2.9,3.2,3.1,5.3c0,0.2,0,0.4,0,0.6c0,0.2,0,0.4,0,0.6
	c0,0.2,0,0.4-0.1,0.6c0,0.2-0.1,0.4-0.1,0.5c-0.1,0.2-0.1,0.4-0.2,0.5s-0.2,0.3-0.3,0.5c-0.1,0.2-0.2,0.3-0.3,0.5
	c-0.1,0.2-0.2,0.3-0.4,0.4c-1.7,1.9-4.5,2.7-7,2.9c-3,0-5.9-0.9-8.2-2.8c-1.5-1.3-2.7-3.1-2.8-5.2c-0.1-1.5,0.5-3,1.5-4.1
	C126.5,14.5,129.6,13.7,132.2,13.6z"/>
<path class="st8" d="M76.9,33.7c-1.5-1.3-3.6-1.9-5.1-3.5c-1.7-1.7-2.6-4.5-2.5-6.9c0.1-2.8,1.7-5.4,3.7-7.3
	c0.2-0.2,0.4-0.3,0.6-0.5c0.2-0.2,0.4-0.3,0.6-0.4s0.4-0.3,0.6-0.4c0.2-0.1,0.4-0.3,0.6-0.4c0.2-0.1,0.4-0.2,0.6-0.3
	c0.2-0.1,0.4-0.2,0.7-0.3c0.2-0.1,0.4-0.2,0.7-0.3c0.2-0.1,0.5-0.2,0.7-0.2c0.2-0.1,0.5-0.1,0.7-0.2c0.2-0.1,0.5-0.1,0.7-0.2
	c0.2-0.1,0.5-0.1,0.7-0.1c0.2,0,0.5-0.1,0.7-0.1c0.2,0,0.5-0.1,0.7-0.1c0.2,0,0.5,0,0.7,0c0.2,0,0.5,0,0.7,0c0.2,0,0.5,0,0.7,0
	c3.2,0.2,6.3,1.4,8.4,3.9c1.9,2.2,3,5.4,2.7,8.2c-0.3,2.8-1.7,5-3.8,6.8C86,34.1,82.2,34.5,76.9,33.7z"/>
<path class="st2" d="M80.8,13.4c2.4,0,4.6,0.1,6.7,1.2c1.8,0.9,3.3,2.4,3.9,4.3c0.5,1.6,0.3,3.3-0.5,4.8c-1.4,2.6-4.2,3.8-6.9,4.6
	c-2.5,0.4-5.4,0.1-7.6-1.1c-1.8-1-3.2-2.5-3.7-4.5c-0.4-1.7-0.1-3.5,0.8-4.9C75.2,15,77.9,14.1,80.8,13.4z"/>
<path class="st9" d="M155.2,70.7c7-5.3,10.9-13.3,18.9-17.6c10-5.3,21.1-4.2,31.6-1c0,1.5,0.1,2.9,0.1,4.4l0,2.9
	c-3.1-0.4-5.7-2.8-8.7-3.4c-1.4-0.3-3.2-0.1-4.7-0.1c-0.9,0-1.9-0.1-2.8,0.3c-2.6,0.1-8.7,1.3-10.6,3.3c-0.1,0.1-0.1,0.2-0.2,0.3
	c-2.4,1.5-4.4,3.2-6.4,5.2c-3,3.2-12.8,16.6-15.3,17.6c-0.1,0-0.7-0.1-0.8-0.1c-0.2-0.1-0.5-0.2-0.7-0.4c-0.4-2.6-4-5.6-5.8-7.4
	l-1.2-1.3l4.7-3.7C154,69.9,154.6,70.2,155.2,70.7z"/>
<path class="st3" d="M153.3,69.6c0.6,0.3,1.3,0.6,1.8,1.1c-1.7,1.5-3.4,2.7-5.3,4l-1.2-1.3L153.3,69.6z"/>
<path class="st3" d="M85.3,205.4l0.2-1.7l0.6-0.3c2.7,1.2,4.9,4.1,7.6,5.7c1,0.5,2.2,1,3.2,1.7c-1.1,1.4-2.4,2.8-3.5,4.3
	c-0.5,2.8-0.8,5.2,0.7,7.7c0,2-0.1,4.1,0.1,6.1l0.1,0.3c-0.6,2.3-0.9,15.8,0,17.6l0.7,0.2l-1.1,1.7c0,2.4-0.3,4.7-0.4,7l0.4,0.6
	c-1.4,4.7-3,17.8-2.9,22.7c0.5,0.5,0.7,0.5,1.4,0.6l-1.1,0.3c-2.1-0.4-4.5-2.4-6.4-2.2c0.9-13.6,1.8-27.2,1.5-40.8
	c-0.2-10.4-1.5-20.9-1.2-31.3L85.3,205.4z"/>
<path class="st10" d="M86.8,257.2l0-14.8c1,2,2.1,4.7,4.1,6c1.1,0.7,1.9,0.5,3.1,0.3c0,2.4-0.3,4.7-0.4,7c-0.5-0.2-1.1-0.3-1.7-0.4
	C89.9,255,88.4,256.1,86.8,257.2z"/>
<path class="st10" d="M85.3,205.4l0.2-1.7l0.6-0.3c2.7,1.2,4.9,4.1,7.6,5.7c1,0.5,2.2,1,3.2,1.7c-1.1,1.4-2.4,2.8-3.5,4.3
	c-0.5,2.8-0.8,5.2,0.7,7.7c0,2-0.1,4.1,0.1,6.1c-2.6-2.9-3.2-4.2-7.1-4.9c-2.1-3-0.3-13.9-1.7-18.2c0-0.1,0-0.1-0.1-0.2L85.3,205.4z
	"/>
<path class="st9" d="M93.4,215.1c-0.1-1.8-0.4-4.3,0.3-6c1,0.5,2.2,1,3.2,1.7C95.7,212.2,94.4,213.6,93.4,215.1z"/>
<path class="st9" d="M8.6,51.6c1.2-0.7,3.3-0.7,4.7-0.9c6.2-1.1,11-2.4,17.3-1c13.4,3,24.2,15.1,32.2,25.6c-2.3,2.3-4.8,5.9-6.2,8.8
	c-0.2,0.6-0.4,1.2-0.8,1.8C47,76,40.5,61.4,26.3,57.7c-2.7,0.4-5.8-1.3-8.6-1.4l-0.5-0.5c-2.8-0.1-5.8,0-8.5,0.6
	C8.7,54.8,8.7,53.2,8.6,51.6z"/>
<path class="st2" d="M17.3,55.8c2.8,0.4,5.7,0.5,8.4,1.1c10.9,2.2,17.8,8.9,24.3,17.5c2.4,3.2,4.6,6.4,6.7,9.8
	c-0.2,0.6-0.4,1.2-0.8,1.8C47,76,40.5,61.4,26.3,57.7c-2.7,0.4-5.8-1.3-8.6-1.4L17.3,55.8z"/>
<path class="st11" d="M189.5,56.1c0.9-0.4,1.8-0.3,2.8-0.3c-2,2.1-5,3.5-6.7,5.9c-6.1,8.2-0.2,19.2-5.5,27.3
	c-5.5,8.4-14.6,6.6-16.3,8.8c-0.4-2.4-1.5-4.6-2.4-6.8c-1.8-1.9-3-4.7-4.3-6.9c5.8-5.6,9.9-12.6,15.5-18.3c1.5-1.5,5.7-4.2,6.2-6
	c0.1-0.1,0.1-0.2,0.2-0.3C180.8,57.5,186.9,56.2,189.5,56.1z"/>
<path class="st1" d="M178.8,59.7c0.1-0.1,0.1-0.2,0.2-0.3c1.9-2,8-3.2,10.6-3.3c-4.6,1.2-9.1,5.4-11.4,9.5
	c-5.2,9.1-3.2,21.6-16.6,25.3c0,0-0.1,0-0.1,0c-1.8-1.9-3-4.7-4.3-6.9c5.8-5.6,9.9-12.6,15.5-18.3C174,64.2,178.3,61.5,178.8,59.7z"
	/>
<path class="st12" d="M192.3,55.8c1.5,0,3.2-0.2,4.7,0.1c3,0.6,5.7,3,8.7,3.4c-1.9,13.8-6.1,26.8-17.7,35.5
	c-5.3,4-10.7,5.6-17.1,6.5c-1.3,0.2-3.1,0.7-4.5,0.5c-0.6-0.1-1.2-0.4-1.6-0.9c-0.6-0.8-0.8-2.1-1.1-3.1c1.7-2.2,10.7-0.4,16.3-8.8
	c5.3-8-0.6-19,5.5-27.3C187.2,59.4,190.2,58,192.3,55.8z"/>
<path class="st8" d="M177.2,420.3c0.1-0.4,0.4-0.8,0.6-1.2c3.4,3.5,9.4,5.1,13.5,7.9c3,2,5.8,4.3,8.5,6.7c1.3,1.1,2.8,2.7,4.2,3.6
	c0.3,0.2,0.4,0.2,0.7,0.3c0.7-0.4,1-0.9,1.4-1.6l0.2,0.3c7.6,8.7,16.6,27.3,20.2,38.4c0.8,2.5,1.2,5.1,1.8,7.7
	c0.4,1.7,0.5,3.6,2.5,3.8c1.5-0.6,2.2-2.1,2.9-3.5c1.1-2.4,1.7-5.1,2.2-7.7c1.6-7.5,1.8-14.3-1-21.5c-0.7-1.7-1.9-3.4-1.7-5.3
	c5.6,10.9,5.8,22.4,2,34c-1.6,5-6.4,13.9-10.9,16.4c-0.4,0.2-0.9,0.3-1.4,0.4c1.4-6.4,0.3-12,0-18.4c-0.5,2.8-1.3,8.7-3.8,10.5
	c0,0-0.1,0.1-0.1,0.1c-0.8-5-1.9-9.9-4.6-14.3c-1.8-2.9-5.8-6-6.5-9.4c-1.1-0.6-2.2-3.2-2.8-4.3c-2.1-4.2-4.1-11-3.6-15.8
	c0.3-3,1.4-5.8,2.3-8.7c-4.3-4.2-9-8-14.2-11.1C185.7,425.1,181.3,423,177.2,420.3z"/>
<path class="st9" d="M83.8,120.8c8.5,12.3,10.5,27.3,9.6,41.9c-2.9,1.7-4,3.7-4.8,6.9c-0.4,1.6-0.8,3.1-1.1,4.7
	c-2.8-2.2-5-5.1-7.5-7.6c-7.9-7.8-16.6-14.7-20.9-25.3c-0.5-1.2-0.6-1.9-0.1-3.1c2.6,0.2,5.5,2.9,9.4,2.8c1,0,2.5-0.2,3.2-1
	c0,0,0.1-0.1,0.1-0.1c3.2-1.1,6.8-3.9,8.9-6.5c2.1-2.6,3.4-5.8,3-9.2C83.9,123.1,83.8,121.9,83.8,120.8z"/>
<path class="st9" d="M121.8,162.4c-1.7-6.5,0.2-18.8,2.1-25.3c0.8-2.8,4.6-14.6,7.1-16c-0.2,2.1-0.7,4.6,0.4,6.5
	c2.6,5.1,5.1,9.7,10.9,11.5c0.2,0.1,0.5,0.1,0.7,0.2c0.2,0.1,0.5,0.1,0.7,0.2c0.2,0,0.5,0.1,0.7,0.1c0.2,0,0.5,0.1,0.7,0.1
	c0.2,0,0.5,0,0.7,0.1c0.2,0,0.5,0,0.7,0c0.2,0,0.5,0,0.7,0c0.2,0,0.5,0,0.7-0.1c0.2,0,0.5-0.1,0.7-0.1c0.2,0,0.5-0.1,0.7-0.1
	c0.2,0,0.5-0.1,0.7-0.2c0.2-0.1,0.5-0.1,0.7-0.2c0.2-0.1,0.4-0.1,0.7-0.2c0.2-0.1,0.4-0.2,0.7-0.3c0.2-0.1,0.4-0.2,0.6-0.3
	c0.2-0.1,0.4-0.2,0.6-0.3c3-1.6,5.1-4.1,6.9-6.9c0.6,0.7,0.8,0.9,0.7,1.8c-0.2,1.5-0.8,3.1-1.3,4.6c-3.7,12.3-13.3,20.1-22.3,28.5
	c-2.9,2.7-5.6,5.7-8.6,8.3c-1.2-3.6-1.7-6.9-3.5-10.2C124,163.5,123,162.9,121.8,162.4z"/>
<path class="st0" d="M131,121.2c0.6-1.4,0.8-3.3,1.3-4.8c1.4-5.2,4-9.6,8.4-12.7c3.4-2.4,7.7-3.7,11.8-2.9c4.1,0.8,7,3.4,9.3,6.8
	c-0.1,0.9,0.2,1.8,0.4,2.7l-1.8,0.7c1.5,2.7,2.6,5.5,3.9,8.2l0,0.3c-0.7-0.1-1.4-0.4-2-0.6c0.4,4.7-0.2,7.9-2,12.2
	c-1.8,2.8-3.9,5.3-6.9,6.9c-0.2,0.1-0.4,0.2-0.6,0.3c-0.2,0.1-0.4,0.2-0.6,0.3c-0.2,0.1-0.4,0.2-0.7,0.3c-0.2,0.1-0.4,0.2-0.7,0.2
	c-0.2,0.1-0.5,0.1-0.7,0.2c-0.2,0.1-0.5,0.1-0.7,0.2c-0.2,0-0.5,0.1-0.7,0.1c-0.2,0-0.5,0.1-0.7,0.1c-0.2,0-0.5,0-0.7,0.1
	c-0.2,0-0.5,0-0.7,0c-0.2,0-0.5,0-0.7,0c-0.2,0-0.5,0-0.7-0.1c-0.2,0-0.5-0.1-0.7-0.1c-0.2,0-0.5-0.1-0.7-0.1
	c-0.2,0-0.5-0.1-0.7-0.2c-0.2-0.1-0.5-0.1-0.7-0.2c-5.8-1.9-8.4-6.4-10.9-11.5C130.3,125.7,130.8,123.2,131,121.2z"/>
<path class="st13" d="M150.1,112.6c0.5,0,1.1,0,1.6,0c1.2,0.1,2.5,0.6,3.3,1.5c0.6,0.7,0.9,1.4,0.7,2.3c-0.2,1.6-1.5,2.5-2.7,3.5
	c-0.4,0.1-0.7,0.1-1.1,0.1c-1.1,0.1-2.4-0.3-3.3-1.1c-0.7-0.6-0.9-1.5-0.9-2.4C147.9,114.7,148.9,113.8,150.1,112.6z"/>
<path class="st3" d="M138.4,115l0.3,0.2c-0.3,1.2-0.8,2.2-1.3,3.4c-0.8,2.1-0.4,4.5,0.5,6.5c1,2.1,2.9,4.3,5.2,5
	c2.8,0.9,6.1,1,8.7-0.5c2.6-1.5,4.1-4,4.9-6.8c0.6-2.2,0.5-4.5,0.5-6.7c0.7,2,1.4,3.9,1.9,6c0.2,2.5-0.6,5.5-1.9,7.6
	c-1.6,2.5-4.2,4.2-7.1,4.8c-3.2,0.7-6.4,0-9.1-1.8c-2.8-1.8-4.9-4.7-5.5-8C135,120.9,136.4,118,138.4,115z"/>
<path class="st13" d="M151.7,109.7c1.7-0.3,3.8,0.9,5.1,1.8c2.7,1.9,4.3,4.4,5.4,7.5c0.4,4.7-0.2,7.9-2,12.2
	c-1.8,2.8-3.9,5.3-6.9,6.9c-0.2,0.1-0.4,0.2-0.6,0.3c-0.2,0.1-0.4,0.2-0.6,0.3c-0.2,0.1-0.4,0.2-0.7,0.3c-0.2,0.1-0.4,0.2-0.7,0.2
	c-0.2,0.1-0.5,0.1-0.7,0.2c-0.2,0.1-0.5,0.1-0.7,0.2c-0.2,0-0.5,0.1-0.7,0.1c-0.2,0-0.5,0.1-0.7,0.1c-0.2,0-0.5,0-0.7,0.1
	c-0.2,0-0.5,0-0.7,0c-0.2,0-0.5,0-0.7,0c-0.2,0-0.5,0-0.7-0.1c-0.2,0-0.5-0.1-0.7-0.1c-0.2,0-0.5-0.1-0.7-0.1
	c-0.2,0-0.5-0.1-0.7-0.2c-0.2-0.1-0.5-0.1-0.7-0.2c-5.8-1.9-8.4-6.4-10.9-11.5c0.2-2.3,0.5-4.3,1.1-6.5c0.9-1.5,1.8-3,2.7-4.4
	c0.6-1,1.4-2.3,2.6-2.6c-0.5,0.7-1,1.5-1.5,2.3c-1.8,3-2.5,6.7-1.6,10.1c0.9,3.4,3.2,6.1,6.2,7.8c3.2,1.8,7,2.3,10.5,1.2
	c3.3-1,6.2-3.1,7.8-6.2c1.7-3.3,1.7-7.3,0.5-10.8C158.2,114.2,155.7,111.7,151.7,109.7z"/>
<path class="st8" d="M131,121.2c0.6-1.4,0.8-3.3,1.3-4.8c1.4-5.2,4-9.6,8.4-12.7c3.4-2.4,7.7-3.7,11.8-2.9c4.1,0.8,7,3.4,9.3,6.8
	c-0.1,0.9,0.2,1.8,0.4,2.7l-1.8,0.7c1.5,2.7,2.6,5.5,3.9,8.2l0,0.3c-0.7-0.1-1.4-0.4-2-0.6c-1-3.1-2.7-5.6-5.4-7.5
	c-1.3-0.9-3.4-2.1-5.1-1.8c-5.1-0.5-8.6-0.1-12.8,3.2c-0.5,0.4-0.7,0.8-1.1,1.2c0,0,0,0-0.1,0c-1.2,0.3-2,1.6-2.6,2.6
	c-0.9,1.4-1.8,2.9-2.7,4.4c-0.6,2.2-1,4.3-1.1,6.5C130.3,125.7,130.8,123.2,131,121.2z"/>
<path class="st2" d="M132.5,121.1c0.6-4.7,3.3-9.5,6.9-12.6c3-2.5,6.8-4,10.7-3.6c4.5,0.4,7.5,2.9,10.2,6.2c1.5,2.7,2.6,5.5,3.9,8.2
	l0,0.3c-0.7-0.1-1.4-0.4-2-0.6c-1-3.1-2.7-5.6-5.4-7.5c-1.3-0.9-3.4-2.1-5.1-1.8c-5.1-0.5-8.6-0.1-12.8,3.2
	c-0.5,0.4-0.7,0.8-1.1,1.2c0,0,0,0-0.1,0c-1.2,0.3-2,1.6-2.6,2.6C134.3,118.1,133.4,119.6,132.5,121.1z"/>
<path class="st12" d="M50.2,100.5c-2.6,1-6.2,0.9-8.9,0.5c-9.2-1.3-17.3-6.9-22.8-14.2C11.7,77.7,7,62.9,8.6,51.6
	c0,1.6,0.1,3.1,0.1,4.7c2.8-0.6,5.7-0.6,8.5-0.6l0.5,0.5c2.8,0,5.9,1.8,8.6,1.4C40.5,61.4,47,76,55.9,85.9c-1,2-1.9,4.2-3.1,6.1
	l-0.2,0.3c-0.1,0.6-0.1,1.5-0.5,1.9C51.5,96.1,50.4,98.5,50.2,100.5z"/>
<path class="st11" d="M17.7,56.3c2.8,0,5.9,1.8,8.6,1.4C40.5,61.4,47,76,55.9,85.9c-1,2-1.9,4.2-3.1,6.1l-0.2,0.3
	c-0.1,0.6-0.1,1.5-0.5,1.9c-0.7-0.5-1.4-0.5-2.3-0.6c-3.7-0.5-7.2-1.6-10.7-3.1c-1.3-0.1-3.6-1.9-4.5-2.8
	c-7.3-7.4-8.6-18.4-8.6-28.3C23.4,58.3,20.3,57.7,17.7,56.3z"/>
<path class="st1" d="M39.1,90.5c3.1-0.3,8.9,2,13.5,1.8c-0.1,0.6-0.1,1.5-0.5,1.9c-0.7-0.5-1.4-0.5-2.3-0.6
	C46.1,93.1,42.6,92,39.1,90.5z"/>
<path class="st1" d="M26.3,57.7C40.5,61.4,47,76,55.9,85.9c-1,2-1.9,4.2-3.1,6.1c-7.5-5.9-10.3-11.3-14.4-19.7
	c-1.1-2.3-2.4-5.1-4.1-7c-1.9-2.2-4.5-3.6-6.7-5.4C26.7,59.3,26.4,58.7,26.3,57.7z"/>
<path class="st3" d="M127.3,206.4c0.4-0.5,1-0.8,1.5-1.1c-3.5,32.4-3.6,63.7,0.3,96.1c4.4,36.9,13.3,73.4,37.1,103
	c3.9,4.8,13.9,8.6,19.5,11.9c2.1,1.3,4.2,2.6,6.2,4.1c2,1.4,4,2.9,5.9,4.5c1.9,1.6,9,9.2,10.5,9.6l1-0.5c1.5,0.4,3.8,0.4,5.3,0
	c0.1,0,0.1,0.1,0.2,0.1c2.1,1.1,4.5,1.2,6.6,2.3c3.6,2,6.7,5.3,9.2,8.4c0.8,1,1.7,2.5,2.7,3.3c-0.1,1.9,1.1,3.5,1.7,5.3
	c2.8,7.3,2.5,14.1,1,21.5c-0.5,2.6-1.1,5.3-2.2,7.7c-0.6,1.4-1.4,2.9-2.9,3.5c-1.9-0.3-2.1-2.2-2.5-3.8c-0.6-2.5-1-5.2-1.8-7.7
	c-3.6-11.1-12.6-29.7-20.2-38.4l-0.2-0.3c-0.4,0.7-0.7,1.2-1.4,1.6c-0.3-0.1-0.5-0.1-0.7-0.3c-1.5-0.9-2.9-2.5-4.2-3.6
	c-2.7-2.3-5.6-4.6-8.5-6.7c-4.1-2.8-10.1-4.4-13.5-7.9c-0.2,0.4-0.5,0.8-0.6,1.2c0,0.1,0,0.2,0.1,0.3c0.8,3.8,4.3,9.2,5.7,13.8
	c4.1,13.5,4.1,24.9,1.5,38.6c-0.4,2-0.7,5.6-1.8,7.3c-0.1,0.2-0.2,0.2-0.3,0.3c-0.4-1,0.8-4.9,1-6.1c1.1-6,1.9-12,1.9-18.1
	c0.3-2.4-0.2-5.1-0.3-7.6c-0.1-0.1-0.1-0.1-0.1-0.3c-1.1-4.4-0.9-9.1-2.2-13.4c-0.7-2.4-3.6-6.9-3.8-8.6c-0.5-1-0.9-2.1-1.4-3.1
	c-1.5-2.7-3.6-5.4-4.7-8.3c-3.5-2.2-7.4-9.5-10.4-13.1c-0.8-2.2-2.5-3.9-3.6-5.9c-2.6-2.8-9.6-14.2-10.9-17.8
	c-0.8-1.5-1.6-2.9-2.5-4.3c0.1-0.3-7.8-20.8-8.7-22.6c0.5-1.4-0.8-4.1-1.3-5.5c-0.9-4.3-3.7-21.3-5.3-23.9c0.1-2.1-0.1-4.5-1.1-6.4
	c0.7-2.9-2-18.4-2.7-22.2c0,0,0.1-0.1,0.1-0.1c0.4-1.1-0.3-4.3-0.7-5.4c0.6-4.9-0.1-9.6-1-14.4c0.5-1.5-0.1-3.5-0.4-5l0.4-0.7
	c-0.3-5.2,1.2-20.5-0.6-24.3c1.2-1.7,0.6-4.3,0.3-6.1c1.4-2.4,2.1-20.2,2.2-24.1C126.7,211,127,208.7,127.3,206.4z"/>
<path class="st4" d="M170.4,408.8c2,2.5,8.1,5.2,10.9,6.8c6.7,3.8,21.9,13.5,25.5,19.6c-0.2,0.5-0.1,0.5-0.5,0.8
	c-0.4,0.7-0.7,1.2-1.4,1.6c-0.3-0.1-0.5-0.1-0.7-0.3c-1.5-0.9-2.9-2.5-4.2-3.6c-2.7-2.3-5.6-4.6-8.5-6.7c-4.1-2.8-10.1-4.4-13.5-7.9
	c-2.9-1-5.5-6.1-6.8-8.8C170.8,409.8,170.6,409.3,170.4,408.8z"/>
<path class="st2" d="M209.4,434c1.5,0.4,3.8,0.4,5.3,0c0.2,0.8,0.2,0.9,0.9,1.4c1.1,0.8,2.7,1.5,4,2.1c3.8,2,6.8,4.4,9.4,7.8
	c7.9,10.5,6.8,21.5,5.1,33.7c-1.3-1.9-0.1-7.9,0-10.3c0.5-7.7-4-21-9.9-26.3c-2.9-2.6-7-4.3-9.5-7.2c-0.1-0.1-0.1-0.2-0.2-0.3
	c2,4.5,6.6,6.5,9.5,10.5c6.4,9.2,9.3,25.6,7.4,36.5c-0.7-0.7-0.9-6.3-1-7.6c-1.2-12.3-4-22.1-12.4-31.4c-1.6-1.8-3.2-3.7-5.1-5.2
	c-1.1-0.9-1.3-1.2-2.7-1.1c1.9,3.1,5.3,5.7,7.6,8.7c0.7,0.9,1.1,2,1.7,3c0.6,1.1,1.5,2.1,2.1,3.2c3.5,6.6,4.8,13.5,6.6,20.6
	c-2.1-1.1-3.6-6.7-4.4-8.9c-1.9-5.2-4-11-7.2-15.6c-2.6-3.8-6-7.2-8.2-11.3c-0.3-0.6-0.2-0.7,0-1.3c0.5-0.3,0.6-0.6,0.9-1.1
	L209.4,434z"/>
<path class="st3" d="M74.1,342.1c1.8,1,4,2.5,6.1,2.4c-1.3,1.2-0.7,3.5-1.9,4.9l0.3,1.1c-2.9,4.2-3.8,11-5.5,15.9
	c-1.1,3-2.6,6-3.4,9.1l0.7,0.4c-1.6,1-2.6,3.9-3.1,5.7l-0.2,0c-0.4,1.8-11.4,21.9-12.9,23.4c-0.3,0-0.7,0-1-0.1
	c0.3,0.3,0.6,0.5,1,0.6c-0.3,1.1-0.6,1.6-1.4,2.4c-0.9,2.2-1.9,5.3-3.5,7l-0.4,0.1c-0.2,3.3-1.6,6.4-2.1,9.7
	c-0.7,3.4-1.3,9.9-4.4,11.9c-1,0.7-5.9,9.8-6.4,11.7c-0.3,1.4-0.7,2.8-1.2,4.2l0,0.1c1.1,3.6,6.3,8.9,4.2,12.6
	c-0.9,1.6-3.2,2.7-4.9,3.2c-0.9,0.2-2.2,0.2-3.1-0.1c0.6,3.9,1.3,11.6,4.6,14.1c1.7,1.2,4.7,1.2,6.7,0.8c0.2,0,0.5-0.1,0.7-0.2
	l0.1,0.2c2.6,3,5.2,5.9,5,10.2c-0.1,1-0.4,2-1.2,2.7c-2.3,1.9-4.7,0.5-6,1.4c-1.7-2.1-2-5.3-3.9-7.1c-0.1-0.1-0.1-0.1-0.2-0.3
	c-3.9-6.9-7.2-21.1-8.3-28.9c-0.2-1.1-0.3-2.2-0.4-3.3c-0.1-1.1-0.2-2.2-0.3-3.3c-0.1-1.1-0.1-2.2-0.1-3.3c0-1.1,0-2.2,0-3.3
	c0-1.1,0-2.2,0.1-3.3c0.1-1.1,0.1-2.2,0.2-3.3c0.1-1.1,0.2-2.2,0.4-3.3c0.1-1.1,0.3-2.2,0.5-3.2c4.2-24.9,20.3-39.3,32.3-60.1
	c5-8.6,8.8-18.3,11.1-27.9C73.3,346,73.7,343.6,74.1,342.1z"/>
<path class="st10" d="M73.9,342c1.8,1,4,2.5,6.1,2.4c-1.3,1.2-0.7,3.5-1.9,4.9c-0.5,0.2-1,0.2-1.5,0.1c-1.8-0.3-3.3-0.9-4.4-2.4
	C73.2,346,73.5,343.5,73.9,342z"/>
<path class="st14" d="M63.5,372c0.6,1.2,1.9,2.3,3,2.9c1.1,0.6,1.9,0.9,3.1,0.5l0.7,0.4c-1.6,1-2.6,3.9-3.1,5.7l-0.2,0
	c-1.8-1.7-4.7-2.3-6.4-4.2C62,375.9,62.8,373.9,63.5,372z"/>
<path class="st14" d="M40.4,406.2c0.1,0,0.1,0,0.2,0c1.8-0.7,5.6-7.6,6.7-9.5c0.7,2.4,1.5,5,3.2,6.7c0.8,0.8,1.5,1.4,2.6,1.4
	c0.3,0.3,0.6,0.5,1,0.6c-0.3,1.1-0.6,1.6-1.4,2.4c-0.9,2.2-1.9,5.3-3.5,7l-0.4,0.1c-1.6-1.8-2-4.4-3.9-6.2c-1.2-1.2-3-1.2-4.2-2.4
	C40.5,406.3,40.5,406.2,40.4,406.2z"/>
<path class="st3" d="M124.1,32.3c0.7-0.3,9.6,1.5,10.7,1.9c0.3,0.1,0.5,0.3,0.7,0.4l0.3,1.1c-0.7,2.5-1.2,5.2-2.1,7.6
	c-1.5,5.8-3.3,11.6-4.7,17.5c2.9,2,5.9,4,8.6,6.3c-0.7,0.3-1.4,0.6-2.2,0.7c-1.9-0.6-3.8-1.2-5.8-1.7c1.2,1.2,3.3,2.8,3.3,4.6
	c0,1.1-0.6,1.8-1.3,2.5l-1.9,0.9c-2.8-0.2-5.3-3.2-8.3-2.5l1.3,2.6c-0.7,1.8-1.3,3.3-3,4.5c-0.6,0.4-1.3,0.7-2.1,0.5
	c-3-0.8-4.9-6-6.3-8.5l-0.4,0c-0.2,2-2.8,5.9-4.3,7.1c-0.8,0.6-1.5,0.9-2.5,0.7c-0.1-0.1-0.3-0.3-0.4-0.5c-0.7-1.2-0.2-3,0-4.3
	c0.1-0.8,0.3-1.2,0-1.9c-1,0.4-1.8,1.7-2.5,2.5c-2.4,1.7-5.5,4.8-8.7,4.2c-0.3-0.1-0.5-0.1-0.8-0.2l2-3.8
	c-1.9-0.6-12.1,4.5-14.5,5.5c0.5-1.3,0.9-2.8,1.8-3.8c1.3-2.5,2.9-4.7,4.5-7l-0.3,0c-3.7,0.6-9.4,3.5-13,2.1
	C72,71,72,70.9,71.9,70.2l0.2-1.2c0.3-0.5,0.6-1,0.8-1.6l-0.3-0.8c1.9-2.8,6.7-3.5,8.8-6.2c-1.3-0.6-2-1.2-2.6-2.5l0.2-0.3l0.8-0.1
	c1,0,1.9-0.2,2.9-0.5c-0.4-1.3-0.6-2.5,0-3.7c1-0.5,1.4-0.4,2.4-0.2l0.5-0.8c1.7,0.1,3.4,0.4,5.1,0.6c-0.9-0.9-2.5-2.1-2.9-3.4
	c-0.2-0.7-0.1-0.8,0.2-1.4c1.4-0.6,2.7-0.1,4.2,0.1l0.3-0.3l0.1-2.2c0.3,1.5,0.5,2.6,1.8,3.6c1.3,0.9,3.3,1.4,4.8,2
	c-1.5-1.8-5.7-5.6-5.8-7.8c1.4-0.5,3.4,0.4,4.7,1c2.7,1.3,5,3.5,7.3,5.4c-1.9-3.9-4.1-6.4-8-8.5c4-0.3,8.1-0.6,11.3,2.3
	c2.6,2.2,3.7,5.6,4.8,8.7c2-0.5,5.8-2.3,6.8-4c0.2-0.4,0.4-0.9,0.5-1.3C122.6,42.4,123.6,37.1,124.1,32.3z"/>
<path class="st4" d="M118.5,68.2c4.7,1,8.7,3.4,13.1,5.1l-1.9,0.9c-2.8-0.2-5.3-3.2-8.3-2.5C120.5,70.5,119.6,69.3,118.5,68.2z"/>
<path class="st4" d="M71.9,70.2c6.2-0.6,10.8-1.4,16.7-3.7c-0.9,1-1.8,2-2.8,2.9l-0.3,0c-3.7,0.6-9.4,3.5-13,2.1
	C72,71,72,70.9,71.9,70.2z"/>
<path class="st4" d="M82.8,57.1c-0.4-1.3-0.6-2.5,0-3.7c1-0.5,1.4-0.4,2.4-0.2c1.6,0.3,6.2,0.7,7,2c0.2,0.3,0.1,0.3,0.1,0.7
	C89.3,56.9,85.8,56,82.8,57.1z"/>
<path class="st4" d="M96.7,70.8l-2.8,4c-1.9-0.6-12.1,4.5-14.5,5.5c0.5-1.3,0.9-2.8,1.8-3.8C86.7,76.9,92.1,73,96.7,70.8z"/>
<path class="st4" d="M124.1,32.3c0.7-0.3,9.6,1.5,10.7,1.9c0.3,0.1,0.5,0.3,0.7,0.4l0.3,1.1c-0.7,2.5-1.2,5.2-2.1,7.6l-0.9,0.2
	c-0.7,2.2-4,16.1-4.6,16.7c-1-0.1-1.5-0.3-2.3-0.8c0.4-1.8,2.9-1.4,2.9-4.1c-0.5-0.7-0.9-1-1.8-1.2c-2.8-0.4-6.2,0.6-8.9,1.4
	c1.1-2.4,2.2-4.9,3.2-7.3l-0.2-1.3C122.6,42.4,123.6,37.1,124.1,32.3z"/>
<path class="st5" d="M124.1,32.3c0.7-0.3,9.6,1.5,10.7,1.9c0.3,0.1,0.5,0.3,0.7,0.4l0.3,1.1c-0.7,2.5-1.2,5.2-2.1,7.6l-0.9,0.2
	c0.5-1.8,1-3.5,1.6-5.2c-3.3-0.9-6.9-1.7-10-3.4c-0.5,4.6-1.3,9-3.2,13.4l-0.2-1.3C122.6,42.4,123.6,37.1,124.1,32.3z"/>
<linearGradient id="SVGID_1_" gradientUnits="userSpaceOnUse" x1="781.8777" y1="385.36" x2="1012.4911" y2="46.5493" gradientTransform="matrix(0.3383 0 0 -0.3383 -192.34 199.6952)">
	<stop  offset="0" style="stop-color:#D98734"/>
	<stop  offset="1" style="stop-color:#FBB656"/>
</linearGradient>
<path class="st15" d="M129.7,66.1c2,0.5,3.9,1.1,5.8,1.7c0.8-0.1,1.5-0.4,2.2-0.7c2.3,1.5,6.3,2.8,8.2,4.7c0.8,0.5,1.8,1.3,2.8,1.6
	l1.2,1.3c1.7,1.8,5.3,4.8,5.8,7.4l-0.5,0.3c4.4,6.7,7.6,13.5,9.5,21.3c-0.9,1.4-1.7,2.7-2.8,4c-2.3-3.3-5.2-6-9.3-6.8
	c-4.1-0.8-8.5,0.5-11.8,2.9c-4.4,3.1-7,7.5-8.4,12.7c-0.4,1.5-0.6,3.4-1.3,4.8c-2.5,1.4-6.3,13.1-7.1,16c-1.9,6.5-3.8,18.8-2.1,25.3
	c-3.3,1.1-5.2,2.1-6.9,5.3l0.1,0.2c1.9-1.5,4.2-3.5,6.8-3.2c1.5,0.2,2.9,1.3,3.8,2.5c2.1,2.9,2,7.8,3.1,11.2
	c1.2,3.6,3.4,6.8,4.5,10.4c0,2.5-0.1,4.9-1,7.3c-1.8,5-6.2,9.4-10.9,11.8c0,0-0.1,0-0.1,0.1c-0.1,0-0.1,0.1-0.2,0.1
	c-5.8,3.3-14,3.6-20.3,1.9c-6.4-1.8-12.5-5.8-15.8-11.7c-5.3-9.6,0.3-11.4,2.6-19.4c0-0.1,0-0.1,0.1-0.2c1.6-3.8,1.2-9.3,4.1-12.4
	c0.8-0.9,1.9-1.5,3.1-1.5c3.2-0.1,5.9,2.9,8,4.9c-0.6-1-1.1-2-1.8-2.9c-1.9-2.8-4.1-3.4-7.3-4.1c1-14.6-1.1-29.6-9.6-41.9
	c0,1.1,0.1,2.3-0.2,3.4c0.4,3.4-0.9,6.6-3,9.2c-2.1,2.7-5.8,5.4-8.9,6.5c-4.7,0.5-9.1-0.2-13-3.1c-4.6-3.5-6.6-8.6-7.4-14.2
	c0.1-1.2,0.4-2.3,0.6-3.4l-0.3-0.2c-1.1,0-2.2-0.2-3.2,0.5c-0.2-1-0.4-1.9-0.8-2.9c0.4-0.2,0.4-0.3,0.7-0.6
	c-0.7-0.8-2.5-0.9-3.5-1.1c-2.4-0.2-5.7-1.4-7.6-3c3.1-0.8,7-0.3,10.2-0.2l0.1-0.8c-1.9-0.5-3.3-0.7-5-1.9c-1.2-0.7-2.4-1.4-3.6-2.1
	l-0.2-0.6c2.8-0.9,6.4,2.4,10.1,0.2c0.8-0.8,0.7-1.9,0.8-3c0.3-1,0.5-2,0.7-3c0.2-1.9,1.3-4.3,1.9-6.3c0.4-0.4,0.4-1.3,0.5-1.9
	l0.2-0.3c1.2-1.9,2.1-4,3.1-6.1c0.4-0.5,0.6-1.2,0.8-1.8c1.4-2.9,3.9-6.5,6.2-8.8l1.1-1.3l1-0.8c2.5-2.3,5.1-4.5,7.7-6.6l0.3,0.8
	c-0.3,0.5-0.5,1.1-0.8,1.6l-0.2,1.2c0.1,0.7,0.2,0.8,0.6,1.3c3.7,1.4,9.3-1.5,13-2.1l0.3,0c-1.6,2.3-3.2,4.6-4.5,7
	c-0.9,1.1-1.3,2.5-1.8,3.8c2.4-1,12.6-6.1,14.5-5.5l-2,3.8c0.3,0.1,0.5,0.1,0.8,0.2c3.2,0.6,6.2-2.5,8.7-4.2
	c0.7-0.9,1.5-2.1,2.5-2.5c0.3,0.7,0.1,1.2,0,1.9c-0.3,1.3-0.7,3.1,0,4.3c0.1,0.2,0.2,0.3,0.4,0.5c1,0.1,1.7-0.1,2.5-0.7
	c1.6-1.2,4.1-5.2,4.3-7.1l0.4,0c1.4,2.5,3.3,7.7,6.3,8.5c0.7,0.2,1.4,0,2.1-0.5c1.7-1.2,2.3-2.7,3-4.5l-1.3-2.6
	c3-0.8,5.5,2.3,8.3,2.5l1.9-0.9c0.7-0.7,1.3-1.5,1.3-2.5C133,68.9,130.9,67.3,129.7,66.1z"/>
<path class="st4" d="M63.7,82.6c1.1,0.8,2.1,1.5,3.4,1.9c-0.6,0.4-0.9,0.6-1.3,1.2c0.5,2.5,4.3,2.3,5.9,3.9
	c-0.4,0.2-0.7,0.3-1.1,0.2c-2.1-0.2-5.4-2.5-6.6-4.2C63.3,84.8,63.5,83.7,63.7,82.6z"/>
<path class="st4" d="M91.9,78.5c0.3,0.1,0.5,0.1,0.8,0.2c3.2,0.6,6.2-2.5,8.7-4.2c-0.9,1.9-2,3.6-3.5,5.1c-1.6,0.5-3.9,1.5-5.5,0.7
	c-0.3-0.1-0.4-0.6-0.5-0.9L91.9,78.5z"/>
<path class="st4" d="M137.9,93.1c-1.1,2-1.3,4.3-1.6,6.6c-3.8,0.9-2.9,2.4-4.2,3c-0.8,0.4-1.7-0.2-2.7,0.4c0.1,0.6,0.2,1.3,0.3,1.9
	l-0.5,0.5l-1.1-0.3c-0.9,0.6-1.1,1.3-1.6,2.2c-0.2,0.1-0.4,0.2-0.6,0.2c0-0.2,0.1-0.4,0.1-0.6c0.3-0.9,1.3-2.2,1.8-3
	C130.7,99.7,133.4,95.8,137.9,93.1z"/>
<path class="st3" d="M126.8,195.2l0.1,0.3c-0.3,1-1.2,2.1-2,2.8c-4.5,4.3-11.5,6.2-17.6,6.1c-6.5-0.2-12.1-2.1-16.7-6.9l-0.7-1.2
	l0.2-0.4c6.1,4.3,8.8,6.4,16.5,6.8C114.7,203.1,120.9,200.5,126.8,195.2z"/>
<path class="st4" d="M103.9,73.9c-0.3,1.3-0.7,3.1,0,4.3c0.1,0.2,0.2,0.3,0.4,0.5c1,0.1,1.7-0.1,2.5-0.7c1.6-1.2,4.1-5.2,4.3-7.1
	l0.4,0c1.4,2.5,3.3,7.7,6.3,8.5c0.7,0.2,1.4,0,2.1-0.5c1.7-1.2,2.3-2.7,3-4.5c0.1,1.4,0.2,2.5-0.3,3.9c-0.5,1.2-1.3,2.4-2.6,2.9
	c-1.3,0.5-2.7,0.3-3.9-0.3c-2.8-1.3-3.5-3.6-4.5-6.2c-0.6,1.1-1.2,2.2-1.8,3.3c-2,3.1-5.2,3.7-8.5,4.5
	C101.6,79.5,101.9,76,103.9,73.9z"/>
<path class="st8" d="M98.5,179.9c-1.8-0.5-4.5-2.4-5.7-3.8c-1-1.1-1.6-2.6-1.5-4.1c0.1-1.2,0.8-2.4,1.7-3.2c0.8-0.7,1.9-1.1,3-1
	c1,0.1,1.8,0.7,2.3,1.4c2.1,2.6,1.7,6.3,1.3,9.4L98.5,179.9z"/>
<path class="st8" d="M115.9,175.4c0.1-2.2,0.2-4.5,1.9-6.1c0.8-0.8,1.8-1.2,3-1.1c1.2,0.1,2.5,0.7,3.3,1.7c0.8,1,1.3,2.2,1.1,3.6
	c-0.2,1.5-1.1,2.8-2.3,3.7c-0.4,0.3-0.7,0.5-1.1,0.7c-0.4,0.2-0.8,0.4-1.1,0.6c-0.4,0.2-0.8,0.4-1.2,0.5s-0.8,0.3-1.2,0.4
	c-0.7,0.1-0.7,0-1.3-0.3C116.1,178,116,176.7,115.9,175.4z"/>
<path class="st1" d="M107.6,109.4c1.3,0.1,2.6,0.4,3.7,1.3c1.1,0.9,1.7,2.2,1.7,3.6c0.1,1.5-0.5,2.9-1.6,4c-1.3,1.4-2.6,1.6-4.5,1.7
	c-0.8,0-1-0.1-1.7-0.5c-1.4-0.8-2.3-1.6-2.7-3.2c-0.4-1.4-0.1-3.1,0.6-4.3C104.1,110.2,105.8,109.8,107.6,109.4z"/>
<path class="st1" d="M117,96.1c1.2,0,2.4,0,3.5,0.4c1.4,0.5,2.7,1.4,3.3,2.8c0.9,2,0.5,3.7-0.3,5.6c-0.9,0.9-1.9,1.6-2.9,2.3
	c-1,0-2.1,0.1-3.1-0.1c-1.5-0.3-3.1-1.4-3.9-2.7c-0.7-1.2-0.9-2.6-0.6-4C113.6,98.2,115.1,97.1,117,96.1z"/>
<path class="st2" d="M96.8,96.4c1.1-0.1,2.3-0.2,3.4,0.1c1.5,0.3,3,1.3,3.7,2.6c0.7,1.2,0.8,2.5,0.5,3.8c-0.6,2.2-2.3,3.6-4.2,4.7
	c-0.7,0-1.4,0.1-2.2,0c-1.6-0.1-3.3-0.7-4.3-2c-0.8-1-1.1-2.2-1-3.4C93,99.4,94.7,98,96.8,96.4z"/>
<path class="st2" d="M88.9,82.5c1.3,0.2,2.5,0.6,3.8,1c1.2,1,2.1,2,2.4,3.6c0.4,2.2-0.8,4.1-2,5.8c-1,0.5-2,1-3.1,1.4
	c-0.4,0-0.8,0.1-1.2,0.1c-2.4,0-3.8-1.5-5.3-3.1c-0.3-1.8-0.5-3.5,0.3-5.2C84.8,84,86.9,83.2,88.9,82.5z"/>
<path class="st2" d="M72.6,66.7l0.3,0.8c-0.3,0.5-0.5,1.1-0.8,1.6c-1.9,0.9-3.3,2.4-4.7,3.9c2.3,0.2,4.3,0.4,5.9,2.3
	c1,1.2,1.5,2.6,1.3,4.2c-0.2,1.5-1,2.8-2.1,3.7c-1.5,1.1-3.5,1.6-5.4,1.5c-1.3-0.5-2.3-1.1-3.4-1.9c-0.3-0.9-1.2-1.3-2-1.7
	c1.1-2.6,3.7-4.4,4.4-7l-1.2-0.6C67.4,71,70,68.8,72.6,66.7z"/>
<path class="st3" d="M64.9,73.3l1.2,0.6c-0.7,2.7-3.3,4.5-4.4,7c-4.4,8.2-9.8,17.5-10,27.1l-0.6,3.5c-1.2,0.4-2.4,0.3-3.7,0.2
	l0.1-0.8c-1.9-0.5-3.3-0.7-5-1.9c-1.2-0.7-2.4-1.4-3.6-2.1l-0.2-0.6c2.8-0.9,6.4,2.4,10.1,0.2c0.8-0.8,0.7-1.9,0.8-3
	c0.3-1,0.5-2,0.7-3c0.2-1.9,1.3-4.3,1.9-6.3c0.4-0.4,0.4-1.3,0.5-1.9l0.2-0.3c1.2-1.9,2.1-4,3.1-6.1c0.4-0.5,0.6-1.2,0.8-1.8
	c1.4-2.9,3.9-6.5,6.2-8.8l1.1-1.3L64.9,73.3z"/>
<path class="st0" d="M38.8,106.9c2.3,0.3,4.7,0.6,7.1,0.7c1.4,0.1,4.2-0.6,5.4-0.1c-0.5,0.9-1.9,1.7-2.9,1.9
	c-1.7,0.4-4.3,0.1-5.9-0.5C41.3,108.3,40.1,107.6,38.8,106.9z"/>
<path class="st2" d="M106.8,83.2c0.9,0,1.8,0,2.7,0.2c1.9,0.3,3.8,1.4,4.9,3c0.9,1.4,1.1,3,0.8,4.6c-0.6,2.7-2.1,3.8-4.3,5.2
	c-1.2,0.2-2.7,0.3-3.9,0c-1.7-0.4-3.3-1.3-4.3-2.9c-0.1-0.1-0.1-0.2-0.2-0.3c-0.1-0.1-0.1-0.2-0.1-0.3c0-0.1-0.1-0.2-0.1-0.3
	c0-0.1-0.1-0.2-0.1-0.3c0-0.1-0.1-0.2-0.1-0.3c0-0.1-0.1-0.2-0.1-0.3c0-0.1,0-0.2-0.1-0.3c0-0.1,0-0.2-0.1-0.3c0-0.1,0-0.2,0-0.3
	c0-0.1,0-0.2,0-0.3c0-0.1,0-0.2,0-0.3c0-0.1,0-0.2,0-0.3c0-0.1,0-0.2,0-0.3c0-0.1,0-0.2,0-0.3c0-0.1,0-0.2,0.1-0.3
	c0-0.1,0-0.2,0.1-0.3C102.7,85.8,104.5,84.5,106.8,83.2z"/>
<path class="st2" d="M127.8,79.2c1.3-0.1,2.9,0.3,4.1,0.9c1.7,0.8,3,2.3,3.6,4.1c0,0.1,0.1,0.2,0.1,0.3c0,0.1,0.1,0.2,0.1,0.3
	c0,0.1,0,0.2,0.1,0.3c0,0.1,0,0.2,0,0.3c0,0.1,0,0.2,0,0.3c0,0.1,0,0.2,0,0.3c0,0.1,0,0.2,0,0.3s0,0.2,0,0.3c0,0.1,0,0.2,0,0.3
	c0,0.1,0,0.2-0.1,0.3c0,0.1,0,0.2-0.1,0.3c0,0.1-0.1,0.2-0.1,0.3c0,0.1-0.1,0.2-0.1,0.3c0,0.1-0.1,0.2-0.1,0.3
	c0,0.1-0.1,0.2-0.1,0.3c0,0.1-0.1,0.2-0.2,0.3c-1.1,2.1-2.9,3-5.1,3.6c-1.5,0-3-0.2-4.3-0.9c-1.7-0.8-3-2.3-3.5-4.1
	c0-0.1-0.1-0.2-0.1-0.3c0-0.1-0.1-0.2-0.1-0.3c0-0.1,0-0.2-0.1-0.3c0-0.1,0-0.2,0-0.3c0-0.1,0-0.2,0-0.3s0-0.2,0-0.3
	c0-0.1,0-0.2,0-0.3c0-0.1,0-0.2,0-0.3c0-0.1,0-0.2,0-0.3c0-0.1,0-0.2,0.1-0.3c0-0.1,0-0.2,0.1-0.3c0-0.1,0.1-0.2,0.1-0.3
	c0-0.1,0.1-0.2,0.1-0.3c0-0.1,0.1-0.2,0.1-0.3c0-0.1,0.1-0.2,0.1-0.3c0-0.1,0.1-0.2,0.1-0.3C123.7,80.8,125.5,79.9,127.8,79.2z"/>
<path class="st4" d="M121,208c-0.1,0-0.1,0.1-0.2,0.1c-5.8,3.3-14,3.6-20.3,1.9c-6.4-1.8-12.5-5.8-15.8-11.7
	c-5.3-9.6,0.3-11.4,2.6-19.4c0-0.1,0-0.1,0.1-0.2c1.2,3.1-2.2,7.1-2.4,10.5c-0.6,6.8,7,13,12.5,15.5c6.6,2.9,14.5,3.5,21.3,0.9
	c3-1.2,9.8-6.4,11.4-9.3c0.4-0.8,1-1.8,1.7-2.3l-0.6,0l0.7,0.7c-0.2,0.7-0.2,0.7,0.1,1.4c-1.8,5-6.2,9.4-10.9,11.8
	C121.1,208,121,208,121,208z"/>
<path class="st1" d="M129.7,66.1c2,0.5,3.9,1.1,5.8,1.7c0.8-0.1,1.5-0.4,2.2-0.7c2.3,1.5,6.3,2.8,8.2,4.7c0.8,0.5,1.8,1.3,2.8,1.6
	l1.2,1.3c1.7,1.8,5.3,4.8,5.8,7.4l-0.5,0.3l-1.4-1.3c-0.8,1.7-1.9,3.2-3.6,4c-0.2,0.1-0.4,0.2-0.6,0.3c-0.2,0.1-0.4,0.1-0.6,0.2
	c-0.2,0.1-0.4,0.1-0.6,0.1c-0.2,0-0.4,0.1-0.6,0.1c-0.2,0-0.4,0-0.6,0c-0.2,0-0.4,0-0.6,0c-0.2,0-0.4-0.1-0.6-0.1
	c-0.2,0-0.4-0.1-0.6-0.2c-2.8-0.9-4.2-3-5.5-5.5c-2.8-2.4-6.9-3.9-10.2-5.6l1.9-0.9c0.7-0.7,1.3-1.5,1.3-2.5
	C133,68.9,130.9,67.3,129.7,66.1z"/>
<path class="st2" d="M145.8,71.8c0.8,0.5,1.8,1.3,2.8,1.6l1.2,1.3c1.7,1.8,5.3,4.8,5.8,7.4l-0.5,0.3l-1.4-1.3
	c-1.4-2-7.2-6.4-7.8-7.9C145.8,72.8,145.9,72.1,145.8,71.8z"/>
<path class="st4" d="M129.7,66.1c2,0.5,3.9,1.1,5.8,1.7c2.8,1.4,5.6,2.7,7.9,4.9c-2.3,2.3-3.4,3.7-3.5,7.1
	c-2.8-2.4-6.9-3.9-10.2-5.6l1.9-0.9c0.7-0.7,1.3-1.5,1.3-2.5C133,68.9,130.9,67.3,129.7,66.1z"/>
<path class="st8" d="M53.4,108.9c2.7-3.8,5.5-7.3,10.4-8.2c3.5-0.6,7,0.7,9.8,2.7c5.9,4.3,8.6,10.5,10.3,17.4c0,1.1,0.1,2.3-0.2,3.4
	l-1.2-3.1c-0.4-0.9-0.7-1.6-1.3-2.4l-0.5,0.1c-0.5-1.7-1.3-3.2-2.4-4.5c-2.3-2.8-5.4-4.6-9-4.9c-4.8-0.4-8.4,1.9-11.9,4.8
	c-3.2,1-3.4,3-5.5,5.1l-0.3-0.2c-1.1,0-2.2-0.2-3.2,0.5c-0.2-1-0.4-1.9-0.8-2.9c0.4-0.2,0.4-0.3,0.7-0.6c-0.7-0.8-2.5-0.9-3.5-1.1
	c-2.4-0.2-5.7-1.4-7.6-3c3.1-0.8,7-0.3,10.2-0.2c1.3,0.1,2.5,0.2,3.7-0.2l0.6-3.5C52.2,108.3,52.8,108.5,53.4,108.9z"/>
<path class="st5" d="M51.7,108c0.6,0.3,1.2,0.5,1.7,0.9c-0.4,1-0.7,2-1.2,2.9l-1.1-0.3L51.7,108z"/>
<path class="st0" d="M37.2,111.9l0.3,0c3,0.4,8.5-0.7,11,0.9l0.2,0.7c-0.5,0.7-0.8,0.9-1.7,1c-0.7,0.1-1.5,0.1-2.2,0.3
	C42.4,114.7,39.1,113.5,37.2,111.9z"/>
<path class="st2" d="M51.9,116c2-4.6,4.4-8.3,9.3-10.3c3.6-1.5,7.8-1.5,11.4,0.1c4.2,1.9,7.6,5.8,9.2,10c0.7,1.8,0.9,3.3,0.8,5.2
	c-0.4-0.9-0.7-1.6-1.3-2.4l-0.5,0.1c-0.5-1.7-1.3-3.2-2.4-4.5c-2.3-2.8-5.4-4.6-9-4.9c-4.8-0.4-8.4,1.9-11.9,4.8
	c-3.2,1-3.4,3-5.5,5.1l-0.3-0.2C51.6,118,51.7,117,51.9,116z"/>
<path class="st0" d="M57.4,114.1c3.5-2.9,7.1-5.2,11.9-4.8c3.6,0.3,6.7,2.1,9,4.9c1.1,1.4,1.8,2.9,2.4,4.5l0.5-0.1
	c0.6,0.8,0.9,1.5,1.3,2.4l1.2,3.1c0.4,3.4-0.9,6.6-3,9.2c-2.1,2.7-5.8,5.4-8.9,6.5c-4.7,0.5-9.1-0.2-13-3.1
	c-4.6-3.5-6.6-8.6-7.4-14.2c0.1-1.2,0.4-2.3,0.6-3.4C54,117.1,54.2,115.1,57.4,114.1z"/>
<path class="st2" d="M62.7,111.6c4.5-1.2,7.7-1.3,11.9,0.9l-2.5,0.2c-3.1-1.2-5.6-0.6-8.7,0.3L62.7,111.6z"/>
<path class="st3" d="M78.7,117.6c0.6,2.3,1.5,3.4,1.3,6c-0.3,3.4-1.7,6.6-4.4,8.8c-2.4,2-5.8,3.2-9,2.8c-3.3-0.4-6.3-2.3-8.3-4.9
	c-2-2.6-2.8-5.7-2.3-9c0.7-4.4,3.3-7.2,6.7-9.7l0.7,1.4c-2.5,1.8-4.9,4.2-5.4,7.3c-0.3,2.3,0.5,4.7,1.9,6.4c1.8,2.3,4.6,3.8,7.5,4.1
	c2.7,0.3,5.8-0.4,8-2.1c1.9-1.6,2.9-4.1,3.1-6.6c0.1-1.2-0.1-2.4-0.3-3.6L78.7,117.6z"/>
<path class="st13" d="M51.9,119.2c2.1-2.1,2.3-4.1,5.5-5.1c-2.2,3.8-3.5,7.8-2.4,12.3c0.9,3.6,3.4,6.6,6.6,8.5
	c3,1.7,6.6,2.3,9.9,1.4c0.2-0.1,0.4-0.1,0.6-0.2c0.2-0.1,0.4-0.1,0.6-0.2c0.2-0.1,0.4-0.2,0.6-0.2c0.2-0.1,0.4-0.2,0.6-0.3
	c0.2-0.1,0.4-0.2,0.6-0.3c0.2-0.1,0.4-0.2,0.6-0.3c0.2-0.1,0.4-0.2,0.5-0.4c0.2-0.1,0.4-0.3,0.5-0.4c0.2-0.1,0.3-0.3,0.5-0.4
	c0.2-0.1,0.3-0.3,0.5-0.4c0.2-0.1,0.3-0.3,0.5-0.5c0.1-0.2,0.3-0.3,0.4-0.5c0.1-0.2,0.3-0.3,0.4-0.5c0.1-0.2,0.3-0.3,0.4-0.5
	c0.1-0.2,0.2-0.4,0.4-0.5c0.1-0.2,0.2-0.4,0.3-0.6c2-3.5,2.2-7.5,1.1-11.3l0.5-0.1c0.6,0.8,0.9,1.5,1.3,2.4l1.2,3.1
	c0.4,3.4-0.9,6.6-3,9.2c-2.1,2.7-5.8,5.4-8.9,6.5c-4.7,0.5-9.1-0.2-13-3.1c-4.6-3.5-6.6-8.6-7.4-14.2
	C51.5,121.5,51.7,120.4,51.9,119.2z"/>
<path class="st0" d="M63.5,113c3.1-0.9,5.6-1.5,8.7-0.3l2.5-0.2c1.6,1.1,3.7,2.4,4,4.6c0,0.2,0,0.3,0,0.5l-0.4,0.9
	c0.2,1.2,0.4,2.4,0.3,3.6c-0.2,2.4-1.2,5-3.1,6.6c-2.1,1.8-5.3,2.4-8,2.1c-2.9-0.3-5.7-1.8-7.5-4.1c-1.4-1.8-2.2-4.2-1.9-6.4
	C58.6,117.2,61,114.8,63.5,113z"/>
<path class="st13" d="M72.2,112.7l2.5-0.2c1.6,1.1,3.7,2.4,4,4.6c0,0.2,0,0.3,0,0.5l-0.4,0.9c-0.9,0.6-1.8,1.1-3,1.2
	c-1.5,0.2-3.2,0-4.3-1c-0.1-0.1-0.2-0.1-0.2-0.2c-0.1-0.1-0.1-0.2-0.2-0.3c-0.1-0.1-0.1-0.2-0.2-0.3c-0.1-0.1-0.1-0.2-0.1-0.3
	c0-0.1-0.1-0.2-0.1-0.3c0-0.1-0.1-0.2-0.1-0.3c0-0.1,0-0.2,0-0.3c0-0.1,0-0.2,0-0.3C70,114.9,71.1,113.8,72.2,112.7z"/>
<path class="st9" d="M190.8,645.8c-1-0.9-1.3-2-1.7-3.2l-1.7-4.5c-1.6-3.2-1.3-6.3-2.3-9.6c-1.3-4.3-3.2-8.4-4.4-12.7
	c-4-14.1-7.3-34.7-7.4-49.2c0-3,0.1-6.1,0.5-9.1c0.5-3.6,1.4-7.3,1.1-10.9c-0.3-4.4-1.9-8.8-2.8-13c-1-4.5-1.3-9-1.4-13.5
	c0.3-5.5,1.5-10.7,3.3-15.9c1-2.6,2.3-5.4,2.9-8.2c1.7-1.7,5.2-12.8,5.4-15.3c-0.4-1,0.8-4.9,1-6.1c1.1-6,1.9-12,1.9-18.1
	c0.3-2.4-0.2-5.1-0.3-7.6c-0.1-0.1-0.1-0.1-0.1-0.3c-1.1-4.4-0.9-9.1-2.2-13.4c-0.7-2.4-3.6-6.9-3.8-8.6c-0.5-1-0.9-2.1-1.4-3.1
	c-1.5-2.7-3.6-5.4-4.7-8.3c-3.5-2.2-7.4-9.5-10.4-13.1c-0.8-2.2-2.5-3.9-3.6-5.9c-2.6-2.8-9.6-14.2-10.9-17.8
	c-0.8-1.5-1.6-2.9-2.5-4.3c0.1-0.3-7.8-20.8-8.7-22.6c0.5-1.4-0.8-4.1-1.3-5.5c-0.9-4.3-3.7-21.3-5.3-23.9c0.1-2.1-0.1-4.5-1.1-6.4
	c0.7-2.9-2-18.4-2.7-22.2c0,0,0.1-0.1,0.1-0.1c0.4-1.1-0.3-4.3-0.7-5.4c0.6-4.9-0.1-9.6-1-14.4c0.5-1.5-0.1-3.5-0.4-5l0.4-0.7
	c-0.3-5.2,1.2-20.5-0.6-24.3c1.2-1.7,0.6-4.3,0.3-6.1c1.4-2.4,2.1-20.2,2.2-24.1c0.2-2.3,0.4-4.6,0.8-6.9c-1.6,0.3-2.8,1.7-4.3,2.5
	c-3.4,1.8-7.2,2.8-10.9,3.9c0,0-0.1,0-0.1,0c-2.8-0.4-5.6-0.3-8.4-0.6c-2.3-0.3-4.5-0.9-6.8-1.3c-1.1,1.4-2.4,2.8-3.5,4.3
	c-0.5,2.8-0.8,5.2,0.7,7.7c0,2-0.1,4.1,0.1,6.1l0.1,0.3c-0.6,2.3-0.9,15.8,0,17.6l0.7,0.2l-1.1,1.7c0,2.4-0.3,4.7-0.4,7l0.4,0.6
	c-1.4,4.7-3,17.8-2.9,22.7c0.5,0.5,0.7,0.5,1.4,0.6l-1.1,0.3c-2.1-0.4-4.5-2.4-6.4-2.2c-0.2,1.7-0.4,3.4-0.5,5
	c-1,6.4-1.5,12.8-2.4,19.2c-0.9,6.8-2,13.5-3.4,20.2c-1.4,6.7-3,13.3-4.8,19.9c1.8,1,4,2.5,6.1,2.4c-1.3,1.2-0.7,3.5-1.9,4.9
	l0.3,1.1c-2.9,4.2-3.8,11-5.5,15.9c-1.1,3-2.6,6-3.4,9.1l0.7,0.4c-1.6,1-2.6,3.9-3.1,5.7l-0.2,0c-0.4,1.8-11.4,21.9-12.9,23.4
	c-0.3,0-0.7,0-1-0.1c0.3,0.3,0.6,0.5,1,0.6c-0.3,1.1-0.6,1.6-1.4,2.4c-0.9,2.2-1.9,5.3-3.5,7l-0.4,0.1c-0.2,3.3-1.6,6.4-2.1,9.7
	c0.1,2.4-2.3,16.9-3.3,18.7c-0.8,4.7-0.8,21.9,1.6,25.5l0.7,0c2.6-0.4,5-0.2,7.3,1.4c3.7,2.7,3.7,9.4,5.7,11.6c0.1,0,0.1,0,0.2,0.1
	c0.6,0.2,1,0.4,1.5,0.7l0.4-0.3c1.7,4.5,5.1,15.3,7.3,18.7c-0.1,0-0.2,0-0.3,0c-3.4-0.5-6.7-3.8-10.1-1.5c-1.6,1.1-2.4,3.2-2.7,5
	c-0.4,2.6-0.1,6,1.5,8.2c0.3,0.4,0.8,1,1.2,1.2c-0.4,1.7,0.6,3,1.4,4.4c0.7,1.2,2,3.3,3.2,3.9l0.5,0c-0.2,1.6-0.2,3.8-1.6,4.9
	c-1.2,0.9-2.6,0.9-4,0.6c-1.5-0.3-3.8-0.4-5.2-1c0,0.1-0.1,0.1-0.1,0.2c-1.3,1.6-3.3,2.1-3.1,4.6c0.1,1.7,1.3,3.1,2.6,4.2
	c1.9,1.6,4.7,2.9,7.2,2.6c0.7-0.1,1.3-0.4,1.8-0.8c0-1.2,0.4-2.5,0.7-3.7c0-0.1,0-0.1,0.1-0.2c1.1-3.6,1.2-7.5,2.6-11.2
	c1.3-3.4,2.8-6.7,4.5-9.9c0.8-1.5,1.9-3.2,2.4-4.8c2.6,10.1,5.7,20.4,6.1,30.9c0.1,2.9,0.1,5.8-0.4,8.7c-1.1,6.5-5,14.8-2,21.3
	l0.4-0.1c0.4,0.8,0.5,1.4,1.3,1.9c0.9,0.6,1.6,1.2,2.7,1.3l0.1,0c-0.2,5.2,2,35.5-0.4,38.5c-0.1,11.1-3.2,21.5-6,32.1
	c-0.5,1.8-0.7,3.7-1.2,5.5c0.3,0.7,0.3,1.1,1,1.4c2.7,2.6,9.3,2.7,12.8,2.7c3.8,0,9.8-0.2,12.7-3.1c0.4-0.1,0.8-0.3,1.1-0.6
	c1-1,0.9-2.7,0.8-4c-0.4-4.2-2-8.3-3.1-12.3c-0.7-2.6-1.3-5.3-1.8-8c-0.5-2.7-0.9-5.4-1.2-8.1c-1.3-13.3-1.4-26.9,1.1-40.1
	c1.3-6.5,3.8-12.5,4-19.2c0.3-4.9-1.3-9.8-2.3-14.5c-0.3-2.1-0.7-4.2-1.1-6.3c0.3-5.1,0-11.3-1-16.4c1.2-3.7,0.7-17,0.7-21.3
	l0.6-0.9c0.2,1,0.1,1.4,0.8,2.1l0.3,0.1c2.1,2,10.2,1.5,13.2,1.4c2.3,0,7.3,0.2,9-1.4c0.3,0.1,1,0.2,1.1,0.5
	c0.7,1.4,0.5,3.9,0.5,5.5c0.4,10,0.2,19.7-1.1,29.6c0.9,0.5,0.5,0.6,1,1.4l1,0c0,1.2-0.5,5.3,0.2,6.1c0.4,0.3,0.8,0.7,1.4,0.8
	c-0.5,0.8-1,0.8-1.5,1.3c-1.1,1.3-0.6,10-0.2,11.9c0.1,0.6,0.3,1.2,0.6,1.7c-1.9,0.5-3.4-1.1-5.1-0.8c-0.8-1-0.7-2.8-0.7-4.1
	c-1.3,6.6,2.6,14,4.1,20.4c1.1,4.6,1.7,9.5,1.8,14.2c0.3,13.2-0.3,27.6-3.3,40.5c-1.1,4.8-3.7,9.2-4.6,14c0,1.4,0.1,3.1,0.7,4.3
	c-1.8,6.6-6,20.4-2.8,26.6c0,0.1,0.1,0.1,0.1,0.2c1.6,2.5,5.1,3.5,7.9,4.2c3,0.8,9,2.3,11.8,0.6c1.3-2.8,1.1-7.8,1.3-10.8
	c0.3,2.6,0.6,8.9,2.4,10.7c0.8,0.8,2.4,0.8,3.4,0.7c4.1-0.3,9.5-2,12.1-5.2c3.5-4.2-2.1-19.2-3.3-24.6c-0.7-3-0.7-6.2-1.4-9.2
	c-0.4-1.7-1.2-3.2-1.3-4.9c0-0.1,0-0.2,0-0.2c-0.2-0.1-0.2-0.1-0.4-0.3c-1.7-1.6-2.5-6-3-8.2c-3.2-13.7-5.3-29.1-3.4-43.1
	c0.9-7,4.5-13.8,4.6-20.8c0.1-4.8-1.9-9.4-2.8-14.1c-0.7-3.6-0.6-7.3-0.6-10.9c0.3-2.2,0.5-4.5,0.8-6.8c0.9-4.1,1.6-8.2,2.6-12.2
	c0.9-3.9,2.1-7.7,2.9-11.6c3.6,9.6,7.5,16.9,7.8,27.6c0.1,4.9-2.6,16.8-0.5,20.3c0,0.1,0,0.2,0,0.3c0.3,4.7,3.1,10.9,3.9,16
	c1.8,11.6,2.2,23.1,1.9,34.8c-0.1,4.2-0.1,8.6-0.8,12.7c-0.7,3.7-2.7,6.9-3.4,10.5c-0.7,3.4,1.1,8.1-1.3,10.9
	c-0.1,0.1-0.1,0.2-0.3,0.3l0,0.3c0.1,4-2.5,12.7-2,15.6c0.3,1.4,1.2,2.7,2.2,3.7c3.1,2.9,8.9,4.6,13.1,4.4c1,0,1.7-0.3,2.6-0.8
	c1.7-2,1.8-6.4,2.2-9c0.2,2.2,0.3,7.5,1.7,9.1c2.9,1.5,8.2,0.2,11.2-0.8c2.7-0.8,6.4-2.5,7.8-5.1C193.4,654.1,191,649.5,190.8,645.8
	z"/>
<path class="st1" d="M125.6,288c-0.7-0.6-1.4-1.3-2-2c-1.5-1.8-2.7-4.4-2.4-6.8c0.2-2.6,1.5-4.1,3.4-5.7
	C125.5,278.4,126.2,283.1,125.6,288z"/>
<path class="st14" d="M77.2,544.5c0.3,0.1,0.6,0.3,0.9,0.4c0.9,0.2,1.3-0.2,1.9-0.7c0.2,3.6-1.5,9.4-1.3,11.5c0,0.2,0.2,0.6,0.3,0.8
	c-0.7,0.7-1.7,1.1-2.7,1.2c-0.8,0.1-1.2-0.2-1.7-0.7l0.1-1.1C76.1,552.5,76.9,548,77.2,544.5z"/>
<path class="st5" d="M168,468.2c1,0.4,1.7,0.7,2.2,1.7c1.1,2.7,0.1,6.8-1,9.3c-0.7,1.5-1.9,3.6-3.4,4.4c-0.1,0.1-0.2,0.1-0.3,0.1
	c-0.2,0-0.4-0.2-0.6-0.3C164.3,479.3,165.6,471.7,168,468.2z"/>
<path class="st1" d="M78.5,499.4c2.7,3.6,4.9,7.7,7.6,11.2c-1,2.3-2.8,4.1-5.2,5c-0.5,0.2-0.9,0.3-1.4,0.3
	C78,513.1,78.4,503,78.5,499.4z"/>
<path class="st1" d="M94.3,229.2c2.5,2,5.2,4.3,5.6,7.7c0.4,3.2-1.6,6.1-3.5,8.5c-0.4,0.5-0.8,1-1.3,1.5l-0.7-0.2
	C93.4,245,93.7,231.5,94.3,229.2z"/>
<path class="st1" d="M94.9,535.8c-0.5,0.4-1,0.7-1.6,0.8c-1.6,0-3.3-0.7-4.5-1.7c-1.4-1.3-2.1-3.3-2.1-5.1c-0.2-5,4.3-7,7.1-10.1
	c0-0.1,0.1-0.1,0.1-0.2C94.9,524.5,95.3,530.7,94.9,535.8z"/>
<path class="st1" d="M122.7,543.3c0,0,0.1,0.1,0.1,0.1c2.5,1.9,6.7,0.1,7.6,5.5c0.3,2-0.6,4.2-1.8,5.8c-1.9,2.5-3.4,3.3-6.4,3.9
	l-0.5-0.4c-0.3-0.5-0.5-1.2-0.6-1.7c-0.4-1.9-0.9-10.5,0.2-11.9C121.7,544.1,122.2,544.1,122.7,543.3z"/>
<path class="st1" d="M138.6,544.8c-0.3,0.1-0.5,0.2-0.8,0.3c-0.9,0.1-2.1-0.4-2.9-0.9c-1.7-1.3-2.5-4-2.7-6.1
	c-0.5-4.8,1-8.8,4.6-12.1c1.1-1,2.3-1.8,3.2-3c0-0.1,0.1-0.1,0.1-0.2c0,1.9-1,6.7-0.1,7.8c-0.3,2.3-0.5,4.5-0.8,6.8
	C138.1,539.3,138.6,542.6,138.6,544.8z"/>
<path class="st1" d="M90.7,286.3c2.5,4.2,4.8,8.3,6.6,12.9c-1.8,4.1-4.6,8.4-9,10c-0.3,0.1-0.7,0.2-1,0.3
	C86,306.5,89.5,290.2,90.7,286.3z"/>
<path class="st3" d="M167.1,468l0.9,0.2c-2.5,3.4-3.8,11-3.3,15.1c0.2,0.1,0.4,0.3,0.6,0.3l-0.7,0.7c-1.2,2.2-4.4,3.9-6.7,4.6
	c-1.1,0.3-1.8,0.3-2.8-0.2c-0.2-1.2,0-2.5,0.1-3.8c1.1-1.5,2.5-8,2.8-10.1c1.1-0.4,2.1-2.1,3.1-2.9C163,470.6,165.3,469.5,167.1,468
	z"/>
<path class="st1" d="M126.5,213.3c-0.1,3.9-0.8,21.8-2.2,24.1c-1.7-0.1-3.7-0.1-5.3-0.7c-1-0.4-2.6-1.3-2.9-2.4
	c-0.9-2.5,5.2-16.8,6.5-19.9C123.9,214.1,125.2,213.7,126.5,213.3z"/>
<path class="st1" d="M67,381.5l0.2,0c1.7,6.7,1.7,14.8-2,20.9c-1.3,2.1-3.1,3.7-5.5,4.3c-1.5,0.4-3.6,0.2-4.9-0.6
	c-0.3-0.2-0.5-0.4-0.7-0.6c-0.4-0.2-0.7-0.4-1-0.6c0.3,0.1,0.7,0.1,1,0.1C55.6,403.4,66.6,383.3,67,381.5z"/>
<path class="st1" d="M96.1,542.2c0.9,4.8,2.5,9.6,2.3,14.5c-0.6,0.5-1.3,0.9-2,1.3c-2.1,1-4.3,1.1-6.5,0.3c-2.3-0.9-4.1-2.7-5-5
	c-0.7-1.7-1.1-4.2-0.3-5.9c1.7-3.9,7.7-2.3,10.9-3.5C96.1,543.3,96,543.1,96.1,542.2z"/>
<path class="st1" d="M78.5,350.5c3.3,5.7,3.6,14.1,4.8,20.5c-1,2.2-4,4.2-6.2,5c-1.5,0.5-4.3,1.2-5.8,0.4c-0.3-0.2-0.6-0.4-0.9-0.6
	l-0.7-0.4c0.8-3.1,2.4-6.1,3.4-9.1C74.7,361.5,75.6,354.7,78.5,350.5z"/>
<path class="st1" d="M126.3,293.6c0.7,3.8,3.5,19.3,2.7,22.2c-1.3-0.4-2.8-0.3-4.1-0.5c-3-0.5-5.7-1.6-7.4-4.1
	c-1.2-1.7-1.4-3.8-1-5.7C117.6,300.1,122,296.3,126.3,293.6z"/>
<path class="st1" d="M74.7,555.8l-0.1,1.1c0.6,0.5,0.9,0.8,1.7,0.7c1-0.1,2-0.5,2.7-1.2c0.7,0.2,1.1,0.3,1.8,0
	c2.4,1.3,4.5,2.7,6.7,4.2c0.2,0.2,0.2,0.1,0.5,0.2c0.6,2.7,1.3,6.1-0.3,8.5c-0.5,0.7-1.1,1.4-1.9,1.7c-0.6,1.1-1.6,1.4-2.8,1.7
	c-1.2,0.3-3,0.4-4.1-0.4c-0.2-0.2-0.2-0.2-0.4-0.4l-0.1,0c-1.1-0.1-1.8-0.7-2.7-1.3c-0.8-0.5-0.9-1.1-1.3-1.9
	C74.1,563.1,73.7,561.8,74.7,555.8z"/>
<path class="st2" d="M74.7,555.8l-0.1,1.1c0.6,0.5,0.9,0.8,1.7,0.7c1-0.1,2-0.5,2.7-1.2c0.7,0.2,1.1,0.3,1.8,0
	c-0.8,1.3-2,1.1-2.7,2.2c-1.3,2-0.5,9.6,0.1,11.9c0.1,0.5,0.3,0.9,0.6,1.3c1.8,0.9,3.6,0.6,5.5,0c0.5-0.2,1-0.4,1.6-0.6
	c-0.6,1.1-1.6,1.4-2.8,1.7c-1.2,0.3-3,0.4-4.1-0.4c-0.2-0.2-0.2-0.2-0.4-0.4l-0.1,0c-1.1-0.1-1.8-0.7-2.7-1.3
	c-0.8-0.5-0.9-1.1-1.3-1.9C74.1,563.1,73.7,561.8,74.7,555.8z"/>
<path class="st1" d="M94,256.3c3.1,3.4,10.6,12.6,10.3,17.1c-0.1,1.5-0.8,2.7-1.9,3.6c-2.9,2.6-7.4,3-11.1,3.2l0-0.3l1.1-0.3
	c-0.7-0.1-0.8-0.1-1.4-0.6C91,274.1,92.6,261,94,256.3z"/>
<path class="st1" d="M141,555.8c1.1,5,1.7,11.6-1.5,15.9c-0.1,0.1-0.1,0.2-0.2,0.2c-2.2,1.1-4.5,1.8-7,1c-2-0.6-3.6-2.2-4.5-4.1
	c-1.1-2.3-1.3-5.5-0.4-7.9c2-5.2,9-2,12.6-3.7C140.8,556.8,140.7,556.5,141,555.8z"/>
<path class="st1" d="M124.2,268.6c-1.4,0.6-3,0.8-4.5,0.7c-2.7-0.3-5.9-1.5-7.6-3.7c-0.5-0.7-0.7-1.4-0.6-2.2
	c0.6-4.1,9.1-17.4,12.4-19.8c1.8,3.8,0.3,19.1,0.6,24.3L124.2,268.6z"/>
<path class="st1" d="M109.4,234.3c0,0,0.1,0,0.1,0c0.3,0.1,0.7,0.2,1,0.3c3,1.5,4.4,8.2,5.4,11.2c-2.2,4.9-5,9-9,12.5
	c-3.3-1.2-4.8-2.9-6.4-6C101,245.2,105.3,239.9,109.4,234.3z"/>
<path class="st1" d="M75.6,484.9c1.5,0,3.6-2.1,4.9-2.9c2.8-1.8,7.3-3.4,9.7-5.6c0.5,1.9,0.9,4.4,2.2,5.9c0.6,5.1,2.2,10,2.9,15
	l-0.6,0.9c-0.1,0-0.1,0.1-0.2,0.1c-2.2,0.8-5.6-0.3-7.6-1.2c-0.3-0.1-0.6-0.3-1-0.5c-0.3-0.2-0.6-0.3-0.9-0.5
	c-0.3-0.2-0.6-0.4-0.9-0.6c-0.3-0.2-0.6-0.4-0.9-0.6c-0.3-0.2-0.6-0.4-0.8-0.6c-0.3-0.2-0.5-0.4-0.8-0.7c-0.3-0.2-0.5-0.5-0.8-0.7
	c-0.3-0.2-0.5-0.5-0.7-0.8c-0.2-0.3-0.5-0.5-0.7-0.8c-0.2-0.3-0.4-0.6-0.7-0.8c-0.2-0.3-0.4-0.6-0.6-0.9c-0.2-0.3-0.4-0.6-0.6-0.9
	c-0.2-0.3-0.4-0.6-0.5-0.9c-0.2-0.3-0.3-0.6-0.5-0.9c-0.2-0.3-0.3-0.6-0.4-1C75.8,485.6,75.7,485.3,75.6,484.9z"/>
<path class="st1" d="M86.2,315.6c3.9,5.2,8,10.3,10.7,16.3c-1.7,5-7.1,9-11.8,11.3c-1.5,0.7-2.9,1.1-4.6,1.2
	c-0.3-0.2-0.4-0.4-0.6-0.7C79.9,341.4,85.1,318.5,86.2,315.6z"/>
<path class="st1" d="M136.7,351.5c0.9,1.8,8.8,22.3,8.7,22.6c-0.3,0.4-0.7,0.8-1.1,1.1c-2,1.4-6.4,1.3-8.8,0.8
	c-2.2-0.4-4.2-1.4-5.5-3.3c-2.1-3.1-1.4-7.6-0.6-11C130.5,356.5,132.2,354.4,136.7,351.5z"/>
<path class="st1" d="M153.2,482c-2.7,0.7-6.5,2.2-9.2,1.5c-1.8-0.4-3-1.8-3.9-3.3c-1.5-2.5-4.7-9.2-3.9-11.9
	c1.2-4,11.8-2.3,14.9-1.6c1.3,0.3,4.1,1.4,5.3,1.2c0.2,0,0.7-0.4,0.9-0.5c-0.2,2.8-2,12.5-3.8,14.3
	C153.4,481.8,153.3,481.9,153.2,482z"/>
<path class="st1" d="M96.8,210.8c2.3,0.4,4.5,1.1,6.8,1.3c2.8,0.3,5.6,0.2,8.4,0.6c0,0,0.1,0,0.1,0c1.6,2.8,3.7,6.9,2.8,10.3
	c-0.4,1.5-1.4,2.6-2.7,3.3c-3.2,1.8-7.9,1.2-11.3,0.1c-2.6-0.8-4.8-2-6.9-3.7c-1.5-2.6-1.2-5-0.7-7.7
	C94.4,213.6,95.7,212.2,96.8,210.8z"/>
<path class="st1" d="M149.4,492.5c-0.4,3.3-6.2,22-7.8,24.7c-1.6,0.6-3.9-0.2-5.5-0.8c-3.1-1.2-6.1-3.2-7.5-6.3
	c0.8-1.4,1.4-3,2.2-4.5c2.8-5.3,7-11.1,13.2-12.2C145.9,493.1,147.8,493.8,149.4,492.5z"/>
<path class="st1" d="M112.4,273.9c0.4,0.1,0.7,0.1,1,0.3c2.9,1.9,4.4,14.1,5,17.7c-1.7,2.4-4.2,5-7,6c-2.4,0.8-4.2,0.3-6.4-0.8
	c-3.6-2.7-5.7-5.3-7.7-9.4C103.3,283.8,107.8,279.5,112.4,273.9z"/>
<path class="st1" d="M185.2,456.3c0,6.1-0.8,12.1-1.9,18.1c-0.2,1.3-1.4,5.2-1,6.1c-0.3,2.5-3.7,13.6-5.4,15.3
	c-0.6,1-2.2,4.8-3.1,5.3c-0.1,0-0.1-0.1-0.2-0.1c-2.9-1.9-5.2-7.7-5.7-11c0.2-0.2,0.2-0.2,0.3-0.4c2.8-6.2,3.4-3.4,6.2-6.3
	c1.9,0.8,4.6,1.7,6.6,1c-0.2-0.1-0.5-0.2-0.7-0.4c-2.1-1.3-2.9-4.8-3.4-7.1c-0.9-3.9-2.4-11.1,0.5-14.3c1.2-1.3,3.4-2.4,4.9-3.5
	c1-0.7,2.3-1.4,2.9-2.5C185.2,456.5,185.2,456.4,185.2,456.3z"/>
<path class="st1" d="M147.9,378.4c1.3,3.6,8.3,15,10.9,17.8c-0.1,0.3-0.3,0.6-0.4,0.9c-1.4,2.7-3.3,5-6.3,5.9
	c-2.5,0.8-5.3,0.1-7.6-1.2c-2.4-1.4-4.4-3.6-5.1-6.3c-1.2-4.6,0.8-10.8,4.4-13.8C145.1,380.5,147,379.9,147.9,378.4z"/>
<path class="st1" d="M184.9,448.8c-2.6,2.4-5.6,5.4-8.9,6.9c-0.9,0.4-1.8,0.7-2.9,0.3c-1.5-0.6-2.5-1.9-3.1-3.3
	c-1-2.3-1.3-5.1-1.4-7.6c-0.4-7.4,2.7-11.1,7.9-15.9c0.8-0.8,1.9-1.5,2.3-2.5c0-0.1,0-0.1,0.1-0.2c0.2,1.7,3.1,6.2,3.8,8.6
	c1.3,4.3,1.1,9.1,2.2,13.4C184.9,448.7,184.8,448.6,184.9,448.8z"/>
<path class="st1" d="M88.6,447.4c4.3,2.9,10.3,6.4,12,11.7c1.1,3.4,0.2,7-1.3,10.2c-0.8,1.6-1.9,3.8-3.7,4.4
	c-0.9-0.3-1.1-0.7-1.7-1.5c-0.6,0.1-0.9,0-1.4-0.3c-5.7-2.9-10.7-10-12.5-16c0.1,0,0.2,0,0.2,0C82.6,455.2,87.3,449.5,88.6,447.4z"
	/>
<path class="st1" d="M125.7,476.2c2.3,1.7,5.5,2,7.8,3.5c1.3,0.8,2,2.6,3.5,2.9c-0.6,4.8-2.4,9.2-6.4,12.2c-2.8,2.1-6.3,3.3-9.8,3.6
	c-0.1,3.9,0.2,7.9,0.2,11.8c0,3-0.2,6.2,0.1,9.1c0,0.1,0.1,0.1,0.1,0.2c2.3,3.4,8.3,5.4,7.1,11.7c-0.2,1.2-1.1,3-2.2,3.8
	c0,0-0.1,0.1-0.1,0.1c-0.9,1-1.9,1.6-3.3,1.6c-0.6,0-1.1-0.1-1.7-0.4l-1,0c-0.5-0.8-0.1-0.9-1-1.4c1.3-9.9,1.5-19.6,1.1-29.6
	c-0.1-1.6,0.2-4.1-0.5-5.5c-0.1-0.3-0.8-0.4-1.1-0.5c0.4,0,0.7-0.1,1-0.3c2.2-4.2,2.7-9.9,3.4-14.5
	C124.5,482.3,125.1,478.9,125.7,476.2z"/>
<path class="st1" d="M116.3,449.7c3,1.8,7.1,1.2,9.3,4.5c1.1,1.7,1.3,4,0.9,5.9c-1,4.8-5.1,9.3-9.1,11.8c-0.9,0.6-2,1.4-3.2,1.1
	c-1,1.6-1.8,2.4-3.6,2.9c-0.3-0.1-0.5-0.3-0.7-0.5c-2.5-2.5-3.7-9.7-3.8-13.2c-0.2-5.6,2.1-8.5,7-10.7c1.1-0.5,2.2-0.8,3-1.7
	C116.2,449.8,116.3,449.7,116.3,449.7z"/>
<path class="st1" d="M104.5,302.9c3,0.8,10.6,13.3,12.8,16.4c-0.5,1.6-1,3.2-1.8,4.7c-1.8,3.4-4.9,6.5-8.7,7.7
	c-5.4-4.8-9.8-9.8-13.6-16C97.3,311.7,100.9,307.3,104.5,302.9z"/>
<path class="st3" d="M85,277.8c1.9-0.3,4.4,1.7,6.4,2.2l0,0.3c-0.7,1.8-0.9,3.6-0.9,5.6l0.1,0.6c-1.2,3.9-4.6,20.2-3.4,23.3l-0.5,0
	c-0.4,1.8-0.6,4.1-0.6,6c-1.1,2.9-6.3,25.8-6.3,28.1c0.2,0.3,0.3,0.5,0.6,0.7l-0.5,0c-2.1,0.1-4.3-1.4-6.1-2.4
	c1.8-6.6,3.4-13.2,4.8-19.9c1.4-6.7,2.5-13.4,3.4-20.2c0.9-6.4,1.4-12.8,2.4-19.2C84.5,281.1,84.8,279.4,85,277.8z"/>
<path class="st10" d="M86.2,315.6c-1.4-1.2-3.1-1.5-4.8-1.9c-0.8-1.7,0.3-4.9,0.7-6.7c1.5,1.4,2.6,2.2,4.7,2.6
	C86.4,311.4,86.1,313.7,86.2,315.6z"/>
<path class="st10" d="M85,277.8c1.9-0.3,4.4,1.7,6.4,2.2l0,0.3c-0.7,1.8-0.9,3.6-0.9,5.6c-0.7-0.7-1.1-1.2-2.1-1.4
	c-1.6,0.2-2.4,1.1-3.5,2.1c-0.5-0.5-0.2-2.6-0.4-3.5l0-0.3C84.5,281.1,84.8,279.4,85,277.8z"/>
<path class="st1" d="M130.1,322.1c1.6,2.6,4.4,19.6,5.3,23.9c-1,0.7-2.1,1.3-3.1,1.9c-2.6,1.4-5.6,2.6-8.6,1.7c-4.6-1.4-7-7-9.1-11
	c2.9-4.9,5.1-10.4,8.2-15.2C125.2,323.1,127.6,322.6,130.1,322.1z"/>
<path class="st1" d="M148.6,430.8c0,0,0.1,0.1,0.1,0.1c2.7,1.8,4.2,8,4.9,11c0.7,3.1,1.5,8.1-0.4,10.9c-2,3-7.2,5.3-10.7,5.9
	c-1.1,0.2-1.5,0.1-2.4-0.5l-1,0.1c-0.8-0.2-1.4-0.6-2-1.1c-2-1.9-3.6-4.9-3.6-7.8c-0.1-7.9,10-13.5,14.8-18.4L148.6,430.8z"/>
<path class="st1" d="M142.9,406.5c0.3,0.2,0.6,0.4,0.9,0.6c2.4,2.5,1.9,10,1.6,13.3c-0.4,4.2-1.3,8.6-4.7,11.4
	c-2.1,1.7-7.8,5.1-10.6,4.6c-0.9-0.2-1.1-0.5-1.7-1.2c-0.2-0.1-0.3-0.1-0.4-0.2c-1.9-1.2-2.6-5.4-3-7.4
	c-1.9-10.1,7.3-13.8,14.3-18.2c1.2-0.8,2.8-1.5,3.6-2.7C142.8,406.6,142.8,406.6,142.9,406.5z"/>
<path class="st1" d="M162.3,402c3.1,3.5,6.9,10.8,10.4,13.1c-1.3,1.8,0.6,6.4-0.7,9.3c-1.3,3-4.2,5.8-7.3,7c-1.5,0.6-3.3,0.7-4.8,0
	c-1.5-0.1-3.4-1.7-4.4-2.7c-4-4-5.7-9.6-5.8-15.1C150.3,413.3,161.9,402.6,162.3,402z"/>
<path class="st1" d="M58.5,451.2c0.8-0.3,2.9-3,4.3-3.8c0.3-0.2,0.5-0.4,0.8-0.7c0,0.1,0.1,0.1,0.1,0.2c1.6,1.9,4.1,3,5.8,4.8
	c3.5,3.6,6.5,8.1,9,12.4c0.8,1.4,1.4,3,2.2,4.3c-1.1,3.8-3.1,7.6-6.7,9.6c-1.5,0.8-3.2,1.2-4.9,0.7c-2.6-0.7-6.1-3.5-7.7-5.7
	c-1.4-0.8-2.5-2.4-3.7-3.5l-0.2-1.1c0.4-1.2-0.1-4.6-0.1-6C57.5,458.6,57.9,455,58.5,451.2z"/>
<path class="st1" d="M106.5,417.2c0,0,0.1,0,0.1,0.1c2.1,1,3.5,3.8,5.3,5.3c2,1.7,4.7,2.6,6.5,4.6c0.3,0.3,0.6,0.6,0.8,1
	c0.3,0.3,0.5,0.7,0.7,1.1c0.2,0.4,0.4,0.7,0.6,1.1c0.2,0.4,0.3,0.8,0.4,1.2c0.9,2.8,0.9,6.2-0.6,8.9c-1.2,2.2-3.5,4.1-5.9,4.7
	c-1.5,0.4-4.4,0.9-5.8,0.1c-2.9,0.8-5.2,3.4-8.5,2.6c-1-2.7-1.2-5.8-1.9-8.6c-0.8-3.4-2-6.8-2.6-10.2
	C97.9,427.9,105.3,419.8,106.5,417.2z"/>
<path class="st3" d="M158.9,439.6c0.6,2.6,0.8,5.2,1.1,7.9c0,9.1-1.1,17.8-3.1,26.7l1.1,0.8c-0.3,2-1.7,8.6-2.8,10.1
	c-0.6,0-0.8-0.1-1.2,0.4c-0.3,0.3-0.5,0.8-0.7,1.2l-0.4,0.1c-0.7,2.3-2.6,10.2-4.4,11.4c2.3,0.6,6-0.6,8.4-1c0,0,0.1,0.1,0.1,0.1
	c2.9,2.6,5,3,5.2,7.5c0.2,3-1.1,6-3.1,8.2c-2.2,2.4-4.8,3.6-8,3.7c0.4,2.7,0.3,6,2.6,7.7c3.5,2.6,11.3,1.3,12.3,6.9
	c0.2,1.3-0.3,2.5-1.1,3.5c-2.1,2.7-6.4,4.9-9.8,5.3c-0.4,0-0.8,0-1.1-0.1c-0.2,1.7-1.2,5.6-0.5,7c3,1.7,10.1,0.3,11.3,4.5
	c0.4,1.2,0.2,2.5-0.5,3.5c-1.2,1.9-3.5,3-5.7,3.5c-1.4,0.3-2.5,0.3-3.9-0.2c-1-0.9-1.3-2.6-2.1-3.7c-2-3.5,0.6-15.5,0.5-20.3
	c-0.2-10.7-4.2-18-7.8-27.6c-0.7,3.9-1.9,7.8-2.9,11.6c-1,4.1-1.7,8.1-2.6,12.2c-0.9-1.1,0.1-6,0.1-7.8c1.1-1,1.2-4.2,1.4-5.7
	c1.7-2.7,7.4-21.4,7.8-24.7c2-1.6,3.2-8,3.7-10.5c0.1-0.1,0.2-0.1,0.3-0.2c1.8-1.8,3.6-11.5,3.8-14.3
	C160,463.6,158.9,445.5,158.9,439.6z"/>
<path class="st14" d="M156.9,474.1l1.1,0.8c-0.3,2-1.7,8.6-2.8,10.1c-0.6,0-0.8-0.1-1.2,0.4c-0.3,0.3-0.5,0.8-0.7,1.2l-0.4,0.1
	C154.3,482.6,155.8,478.4,156.9,474.1z"/>
<path class="st1" d="M66.3,409.5c5.4,5.4,17.8,10.6,21.9,16.6c2,3.1,2.9,6.8,2.1,10.5c-0.3,1.3-0.9,2.7-2.1,3.4
	c-1,0.6-2.1,0.8-3.2,0.5c-0.3,0.4-0.7,0.7-1.1,1c-3.6,1.8-13.2,2.4-17.1,1.2c-1.5-0.5-2.4-1.3-3.1-2.7
	C60.4,433.2,64,416.4,66.3,409.5z"/>
<path class="st1" d="M121.1,375.3c4.2,2.2,8.8,4.2,11.4,8.3c2.7,4.5,4,12.4,2.7,17.5c-0.6,2.6-2.2,4-4.4,5.3
	c-2.1,1.2-9,5.4-11.2,4.8c-0.6,0.9-1.7,2.1-2.8,2.4c-0.9,0.3-1.7,0-2.5-0.4c-3-1.6-5.3-6.2-6.3-9.4
	C104.4,392.6,116.3,384.3,121.1,375.3z"/>
<path class="st1" d="M81,376.2c2.9,0.9,5.2,4.5,7.7,6.2c2.5,1.7,5.7,2.4,8.5,3.8c2.6,1.3,4.7,3.2,5.7,6c1.6,4.9,0.1,10.5-1.1,15.3
	c-0.4,1.7-0.6,3.3-1.4,4.9c-0.7,1.3-2.1,3.5-3.7,3.9c-0.8,0.2-1.1-0.2-1.8-0.5c-0.4,0.3-0.9,0.8-1.4,0.9c-2.4,0.7-5.9-1-8-2.2
	c-0.2-0.1-0.4-0.2-0.6-0.4c-0.2-0.1-0.4-0.3-0.6-0.4c-0.2-0.1-0.4-0.3-0.6-0.4c-0.2-0.1-0.4-0.3-0.6-0.4c-0.2-0.1-0.4-0.3-0.6-0.4
	c-0.2-0.1-0.4-0.3-0.6-0.4c-0.2-0.1-0.4-0.3-0.5-0.4c-0.2-0.2-0.4-0.3-0.5-0.5c-0.2-0.2-0.3-0.3-0.5-0.5c-0.2-0.2-0.3-0.3-0.5-0.5
	c-0.2-0.2-0.3-0.3-0.5-0.5c-0.2-0.2-0.3-0.3-0.5-0.5c-0.2-0.2-0.3-0.4-0.5-0.5c-0.2-0.2-0.3-0.4-0.5-0.5c-0.1-0.2-0.3-0.4-0.4-0.5
	c-0.1-0.2-0.3-0.4-0.4-0.6c-0.1-0.2-0.3-0.4-0.4-0.6c-0.1-0.2-0.3-0.4-0.4-0.6c-0.1-0.2-0.3-0.4-0.4-0.6c-0.1-0.2-0.2-0.4-0.4-0.6
	c-0.1-0.2-0.2-0.4-0.4-0.6c-0.1-0.2-0.2-0.4-0.3-0.6c-0.1-0.2-0.2-0.4-0.3-0.6c-0.1-0.2-0.2-0.4-0.3-0.6c-0.1-0.2-0.2-0.4-0.3-0.6
	c-0.1-0.2-0.2-0.4-0.3-0.6c-0.1-0.2-0.2-0.4-0.3-0.7c-0.1-0.2-0.2-0.4-0.2-0.7c-0.1-0.2-0.2-0.4-0.2-0.7c-0.1-0.2-0.1-0.4-0.2-0.7
	c-0.1-0.2-0.1-0.5-0.2-0.7c-0.1-0.2-0.1-0.5-0.2-0.7C75.3,391.7,79.5,381.8,81,376.2z"/>
<path class="st1" d="M96.4,340.2c4.9,2,9.9,2.1,15.1,1.5c0.1,5.8,2.2,10.4,6.3,14.4c1.2,1.2,3.8,3.3,5.6,3.2c-1,5.4-3.9,10.8-8,14.5
	c-1.1,1-2.2,1.9-3.7,1.8c-1,1.7-3.2,2.9-5.1,3.4c-2.9,0.8-6-0.2-8.6-1.6c-4.6-2.6-9.1-7.2-10.5-12.4
	C85.5,357.2,92.6,346.7,96.4,340.2z"/>
<path class="st0" d="M138.6,544.8c0-2.2-0.4-5.5,0.7-7.3c0,3.6-0.1,7.3,0.6,10.9c0.9,4.7,2.9,9.2,2.8,14.1c-0.2,7-3.7,13.8-4.6,20.8
	c-1.9,14,0.2,29.5,3.4,43.1c0.5,2.2,1.3,6.7,3,8.2c0.2,0.2,0.2,0.2,0.4,0.3c0,0.1,0,0.1,0,0.2c0.1,1.7,1,3.3,1.3,4.9
	c0.7,3.1,0.7,6.2,1.4,9.2c1.2,5.3,6.7,20.4,3.3,24.6c-2.6,3.2-8.1,4.9-12.1,5.2c-1.1,0.1-2.6,0.1-3.4-0.7c-1.8-1.7-2-8.1-2.4-10.7
	c-0.2,3,0,8-1.3,10.8c-2.8,1.7-8.8,0.2-11.8-0.6c-2.8-0.7-6.3-1.7-7.9-4.2c0-0.1-0.1-0.1-0.1-0.2c-3.2-6.2,0.9-20,2.8-26.6
	c-0.6-1.3-0.8-3-0.7-4.3c0.9-4.8,3.4-9.2,4.6-14c3.1-12.9,3.6-27.3,3.3-40.5c-0.1-4.7-0.7-9.6-1.8-14.2c-1.5-6.4-5.4-13.8-4.1-20.4
	c0,1.2-0.1,3,0.7,4.1c1.7-0.3,3.1,1.2,5.1,0.8l0.5,0.4c-1.4,2.9,1.7,13.1,2.1,17c0.7,6.9,0.8,14.5,0.3,21.5
	c-0.2,3.3-0.8,6.5-0.9,9.8c0.5,11.2-7.6,35.3-5.3,42.2c0.9,1.6,2.1,1.9,3.8,2.3c5.4,1.4,15,1.4,19.8-1.5c0.2-0.1,0.2-0.1,0.4-0.3
	c0.6-0.1,1-0.7,1.4-1.1c0.3-0.1,0.6-0.2,0.8-0.4c2.1-1.8,1.4-5.8,0.8-8.1c-1.2-5-3.6-9.6-4.9-14.6c-0.4-1.6-0.8-3.3-1.2-4.9
	c-0.4-1.7-0.7-3.3-1-5c-0.3-1.7-0.5-3.4-0.7-5c-0.2-1.7-0.4-3.4-0.5-5.1c-0.1-1.7-0.2-3.4-0.3-5.1c-0.1-1.7-0.1-3.4,0-5.1
	c0-1.7,0.1-3.4,0.2-5.1c0.1-1.7,0.2-3.4,0.4-5.1c0.5-4.4,1.3-8.8,2-13.1c0.1-0.1,0.1-0.2,0.2-0.2c3.2-4.4,2.6-11,1.5-15.9
	C139.1,553.9,138.9,547.5,138.6,544.8z"/>
<path class="st8" d="M143.8,648.5l0.8,0.4l1-0.8c3,2.9,5.5,18.6,5.6,22.7c0,0.3,0,0.6,0,0.9c-0.6,1.1-1.2,2.5-2.5,2.9
	c-0.5,0.2-0.8,0.1-1.3,0c0.6-0.3,0.9-0.9,1.2-1.5c2-5.1-0.8-15.2-2.9-20c-0.6-1.5-1.1-2.8-2.7-3.4l-0.7-0.1
	C143,649.4,143.4,648.9,143.8,648.5z"/>
<path class="st8" d="M114.9,647.9c0.2,0.3,0.5,0.6,0.7,0.8c0.9,1,1.7,1.5,3.1,1.6c-2.7,2.2-3.1,8.8-3.5,12c-0.3,3.2-1.1,9.6,1,12.3
	c0.3,0.3,0.7,0.6,1.1,0.7c0.1,0,0.2,0,0.3,0c-0.9,0.4-1.7,0.4-2.6,0.2c-0.9-0.2-1.6-0.7-2-1.5C109.4,668.2,113.5,654.4,114.9,647.9z
	"/>
<path class="st14" d="M116.6,557.4c1.7-0.3,3.1,1.2,5.1,0.8l0.5,0.4c-1.4,2.9,1.7,13.1,2.1,17c0.7,6.9,0.8,14.5,0.3,21.5
	c-0.2,3.3-0.8,6.5-0.9,9.8c0.5,11.2-7.6,35.3-5.3,42.2l-0.9,0.2c-0.5-0.2-1-0.4-1.4-0.9c-1.1-1.5-1.2-3.9-1-5.7
	c0.6-4.8,3-9.2,4.1-13.9c1.8-7.2,2.2-14.9,2.9-22.3c0-1.5,0.2-3.1,0.2-4.6c0-8.1,0.3-16.6-1-24.6
	C120.3,570.4,117.1,564.3,116.6,557.4z"/>
<path class="st2" d="M143,649.7c1.5,0.6,2,1.9,2.7,3.4c2.1,4.8,5,14.9,2.9,20c-0.2,0.6-0.6,1.1-1.2,1.5c-0.8,1.5-2.3,2-3.9,2.5
	c-2.3,0.7-5.5,1.4-7.8,0.6c-1.3-6.1-2.7-12.6-3.2-18.8c-0.5,4.7,0.2,15.2-2,18.9c-1.8,1.2-5.7,0.4-7.8,0c-1.8-0.4-3.8-0.8-5.1-2.2
	c-0.1,0-0.2,0-0.3,0c-0.4-0.1-0.8-0.4-1.1-0.7c-2.1-2.7-1.4-9.1-1-12.3c0.3-3.2,0.8-9.9,3.5-12c0.2,0.3,0.5,0.6,0.8,0.8
	c3.4,2.5,13.4,1.9,17.4,1.2C139,652,141.8,651.5,143,649.7z"/>
<path class="st3" d="M52.7,407.9c0.1,1.2,0.7,2.1,1.6,2.9c0.7,0.6,1.5,1,2.5,1.1l0.7-0.2c0.2-0.1,0.1,0,0.3-0.2
	c0.4-0.4,0.6-0.5,1.1-0.7c-1.1,5.2-1.4,8.7-1.8,14c-0.2,2.7-3,20.6-1.6,21.9c-0.5,3.8,2,12.1,2,15.9c0,1.4,0.5,4.8,0.1,6l0.2,1.1
	c1.2,1.1,2.3,2.7,3.7,3.5c-0.5,2.6,7.1,14.8,8.9,17.4c0.5,0.7,1.2,2,2,2.3c1.6,2.3,3.8,4.9,6.1,6.7c0,3.7-0.4,13.7,0.9,16.6
	l-0.3,0.4c0.3,2.7,0.4,7,1.7,9.4c2.3,4.1,5.3,10.3,4,15.1c-0.3,0.9-0.8,1.8-1.6,2.3c-0.6,0.3-1.4,0.7-2.1,0.8l-1,0.3
	c-0.7,0.5-1.1,0.9-1.9,0.7c-0.3-0.1-0.6-0.2-0.9-0.4c-0.3,3.6-1.1,8-2.5,11.3c-1,6-0.5,7.3-0.3,13l-0.4,0.1c-3-6.5,0.8-14.8,2-21.3
	c0.5-2.9,0.5-5.8,0.4-8.7C76,528.5,73,518.1,70.3,508c-0.5,1.6-1.6,3.2-2.4,4.8c-1.6,3.2-3.1,6.5-4.5,9.9c-1.4,3.6-1.5,7.6-2.6,11.2
	c0,0.1,0,0.1-0.1,0.2c-0.3,1.2-0.7,2.5-0.7,3.7c-0.5,0.4-1.2,0.7-1.8,0.8c-2.5,0.3-5.3-1.1-7.2-2.6c-1.3-1.1-2.4-2.5-2.6-4.2
	c-0.2-2.5,1.8-3,3.1-4.6c0-0.1,0.1-0.1,0.1-0.2c1.3,0.6,3.6,0.7,5.2,1c1.4,0.3,2.8,0.3,4-0.6c1.4-1.1,1.4-3.3,1.6-4.9l-0.5,0
	c-1.2-0.7-2.5-2.7-3.2-3.9c-0.8-1.4-1.8-2.7-1.4-4.4c-0.5-0.2-0.9-0.8-1.2-1.2c-1.6-2.2-1.9-5.6-1.5-8.2c0.3-1.9,1.1-3.9,2.7-5
	c3.4-2.4,6.8,1,10.1,1.5c0.1,0,0.2,0,0.3,0c-2.2-3.4-5.6-14.2-7.3-18.7l-0.4,0.3c-0.5-0.4-0.9-0.6-1.5-0.7c-0.1,0-0.1,0-0.2-0.1
	c-1.9-2.2-1.9-8.9-5.7-11.6c-2.2-1.6-4.6-1.8-7.3-1.4l-0.7,0c-2.4-3.6-2.4-20.8-1.6-25.5c1-1.8,3.5-16.3,3.3-18.7
	c0.6-3.3,1.9-6.4,2.1-9.7l0.4-0.1C50.8,413.2,51.8,410.1,52.7,407.9z"/>
<path class="st14" d="M57.4,514.2c0.8,1.3,2.2,2,3.6,2.4c1.4,0.3,2.7,0.3,4.1-0.1c-0.5,1.7-1.1,5-2.7,6l-0.5,0
	c-1.2-0.7-2.5-2.7-3.2-3.9C57.9,517.2,57,515.9,57.4,514.2z"/>
<path class="st14" d="M75.4,523.3c-0.4-0.5-0.6-0.9-0.8-1.5c-0.4-1-0.9-2.2-0.4-3.2c0.8-1.7,3.2-1.9,4.8-2.4c0.3,2.7,0.4,7,1.7,9.4
	l-1,0.2C78.2,525.4,76.3,524.8,75.4,523.3z"/>
<path class="st6" d="M57.8,469.6c1.2,1.1,2.3,2.7,3.7,3.5c-0.5,2.6,7.1,14.8,8.9,17.4c0.5,0.7,1.2,2,2,2.3c-0.2,0.1-0.4,0.2-0.6,0.3
	c-1.3,0.4-4.8,0.3-6-0.3C63.2,490.3,58.6,473.7,57.8,469.6z"/>
<path class="st1" d="M75.4,523.3c0.9,1.4,2.8,2.1,4.4,2.5l1-0.2c2.3,4.1,5.3,10.3,4,15.1c-0.3,0.9-0.8,1.8-1.6,2.3
	c-0.6,0.3-1.4,0.7-2.1,0.8l-1,0.3c-0.7,0.5-1.1,0.9-1.9,0.7c-0.3-0.1-0.6-0.2-0.9-0.4c0.2-2.6,0-5.3,0-7.9
	C76.5,532.2,75.9,527.8,75.4,523.3z"/>
<path class="st2" d="M77.2,536.6c1,1.8,2.1,6.5,3.9,7.3l-1,0.3c-0.7,0.5-1.1,0.9-1.9,0.7c-0.3-0.1-0.6-0.2-0.9-0.4
	C77.4,541.9,77.2,539.2,77.2,536.6z"/>
<path class="st10" d="M45.9,442.5c0.1-1.8,0.2-4.6,1.5-5.9c0.1,2.6-0.8,4.9-0.7,7.4c-2,1.6-2.7,2.7-3,5.3c-0.5,3.9,0.5,9.1,2.9,12.2
	c0.6,0.8,1.8,2.2,2.9,2.3c1.4,0.9,4,1.2,5.6,0.9c0.3,0,0.5-0.1,0.7-0.2c0.9,6.2,2.7,12.1,4.8,18l-0.4,0.3c-0.5-0.4-0.9-0.6-1.5-0.7
	c-0.1,0-0.1,0-0.2-0.1c-1.9-2.2-1.9-8.9-5.7-11.6c-2.2-1.6-4.6-1.8-7.3-1.4l-0.7,0c-2.4-3.6-2.4-20.8-1.6-25.5
	c-0.1,0.9-0.2,1.7,0.2,2.5C44.4,445.5,45.4,443.4,45.9,442.5z"/>
<path class="st10" d="M52.7,407.9c0.1,1.2,0.7,2.1,1.6,2.9c0.7,0.6,1.5,1,2.5,1.1l0.7-0.2c-0.2,2.1-1.1,3.6-1.5,5.5
	c-1.1,5.1-1.8,11.1-2.1,16.3c-0.2,2.6,0.5,11.1-0.9,12.9c-1.1,0.5-2.2,0-3.3-0.4c-1.1-0.4-2-0.8-2.8-1.7c-0.1-0.1-0.1-0.1-0.2-0.2
	c0,0-0.1-0.1-0.1-0.1c-0.1-2.5,0.9-4.8,0.7-7.4c-1.3,1.4-1.3,4.1-1.5,5.9c-0.4,0.9-1.5,3-2.4,3.3c-0.5-0.8-0.3-1.6-0.2-2.5
	c1-1.8,3.5-16.3,3.3-18.7c0.6-3.3,1.9-6.4,2.1-9.7l0.4-0.1C50.8,413.2,51.8,410.1,52.7,407.9z"/>
<path class="st2" d="M119.1,535.1c0.9,0.5,0.5,0.6,1,1.4l1,0c0,1.2-0.5,5.3,0.2,6.1c0.4,0.3,0.8,0.7,1.4,0.8c-0.5,0.8-1,0.8-1.5,1.3
	c-1.1,1.3-0.6,10-0.2,11.9c0.1,0.6,0.3,1.2,0.6,1.7c-1.9,0.5-3.4-1.1-5.1-0.8c-0.8-1-0.7-2.8-0.7-4.1
	C116.4,547.3,118.4,541.2,119.1,535.1z"/>
<path class="st14" d="M120.2,536.5l1,0c0,1.2-0.5,5.3,0.2,6.1c-0.6,0.5-1,0.7-1.7,0.7l-0.4-0.5C119,540.8,119.7,538.4,120.2,536.5z"
	/>
<linearGradient id="SVGID_00000178925472837310054460000017194606752298736781_" gradientUnits="userSpaceOnUse" x1="990.8799" y1="-1270.9559" x2="1175.6427" y2="-909.0784" gradientTransform="matrix(0.3383 0 0 -0.3383 -192.34 199.6952)">
	<stop  offset="0" style="stop-color:#A5741C"/>
	<stop  offset="1" style="stop-color:#BCA331"/>
</linearGradient>
<path style="fill:url(#SVGID_00000178925472837310054460000017194606752298736781_);" d="M164.7,484.4c0.8,3.6,5,20.9,7.1,22.6
	l0.4-0.3c0.9-1.7,1.2-3.7,1.6-5.6c0.9-0.4,2.5-4.2,3.1-5.3c-0.5,2.8-1.9,5.5-2.9,8.2c-1.9,5.2-3,10.4-3.3,15.9
	c0.1,4.6,0.4,9.1,1.4,13.5c0.9,4.3,2.5,8.7,2.8,13c0.2,3.6-0.6,7.3-1.1,10.9c-0.4,3-0.6,6-0.5,9.1c0.2,14.6,3.5,35.2,7.4,49.2
	c1.2,4.3,3.2,8.4,4.4,12.7c1,3.3,0.7,6.4,2.3,9.6l1.7,4.5c0.4,1.2,0.7,2.4,1.7,3.2c0.2,3.7,2.6,8.4,0.7,11.9
	c-1.4,2.6-5.1,4.2-7.8,5.1c-3,0.9-8.3,2.3-11.2,0.8c-1.5-1.6-1.5-6.9-1.7-9.1c-0.3,2.6-0.4,7-2.2,9c-0.9,0.5-1.6,0.7-2.6,0.8
	c-4.3,0.2-10-1.5-13.1-4.4c-1-1-1.9-2.2-2.2-3.7c-0.5-2.9,2.1-11.6,2-15.6l0-0.3c0.1-0.1,0.2-0.1,0.3-0.3c2.4-2.8,0.6-7.5,1.3-10.9
	c0.8-3.6,2.8-6.9,3.4-10.5c0.7-4.1,0.7-8.5,0.8-12.7c0.3-11.7,0-23.2-1.9-34.8c-0.8-5.1-3.6-11.3-3.9-16c0-0.1,0-0.2,0-0.3
	c0.8,1.1,1.2,2.8,2.1,3.7c1.3,0.5,2.5,0.5,3.9,0.2c2.1-0.5,4.5-1.6,5.7-3.5c0.7-1.1,0.8-2.3,0.5-3.5c-1.2-4.2-8.3-2.8-11.3-4.5
	c-0.7-1.4,0.3-5.3,0.5-7c0.4,0.1,0.8,0.1,1.1,0.1c3.4-0.4,7.8-2.6,9.8-5.3c0.8-1,1.3-2.2,1.1-3.5c-1-5.6-8.8-4.3-12.3-6.9
	c-2.4-1.7-2.3-5.1-2.6-7.7c3.2-0.1,5.9-1.3,8-3.7c2-2.2,3.2-5.2,3.1-8.2c-0.2-4.5-2.3-4.8-5.2-7.5c0,0-0.1-0.1-0.1-0.1
	c-2.4,0.4-6.1,1.6-8.4,1c1.8-1.2,3.7-9.2,4.4-11.4l0.4-0.1c0.2-0.4,0.4-0.8,0.7-1.2c0.4-0.5,0.6-0.4,1.2-0.4
	c-0.1,1.2-0.3,2.6-0.1,3.8c1,0.5,1.7,0.5,2.8,0.2C160.3,488.3,163.6,486.6,164.7,484.4z"/>
<path class="st3" d="M171.4,534.5c1.2,3.9,3.8,9.8,3,13.8l-0.2,0.3l0-0.7c-1.1-1.3-6.3-0.8-8.5-1.5c-1.3-0.4-2.3-0.8-3-2.1
	c-0.4-3.6,6.8-6.8,8.6-9.6C171.4,534.6,171.4,534.6,171.4,534.5z"/>
<path class="st3" d="M173.8,501.1c0.9-0.4,2.5-4.2,3.1-5.3c-0.5,2.8-1.9,5.5-2.9,8.2c-1.9,5.2-3,10.4-3.3,15.9
	c-0.8,1.4-0.8,3.7-0.7,5.3c-0.9-0.9-5.6-0.6-7.6-2.1c-0.8-0.6-1.2-1.5-1.3-2.5c-0.6-4.8,7.3-6.1,9.7-9.2c0-0.1,0.1-0.1,0.1-0.2
	c0.4-1.4,0.7-2.8,0.9-4.3l0.4-0.3C173.1,505,173.4,503,173.8,501.1z"/>
<path class="st0" d="M170,525.3c-0.1-1.6-0.1-3.9,0.7-5.3c0.1,4.6,0.4,9.1,1.4,13.5c0.9,4.3,2.5,8.7,2.8,13
	c0.2,3.6-0.6,7.3-1.1,10.9c-0.4,3-0.6,6-0.5,9.1c0.2,14.6,3.5,35.2,7.4,49.2c1.2,4.3,3.2,8.4,4.4,12.7c1,3.3,0.7,6.4,2.3,9.6l-0.6,0
	c-0.6-0.8-1.1-1.5-1.6-2.4c-2,2.9-5.5,4-8.8,4.7c-6.2,1.2-15.1,1.3-20.5-2.3c-0.4-0.3-0.7-0.6-1.1-0.9c-0.8,4.1-4.8,17.3-2.5,20.6
	c2.3,3.3,7.2,4.8,11,5.4c1.2,0.2,3.1,0.4,4.1-0.3c1.2-0.8,1.4-3,1.6-4.4c0.6-4.4,0.9-8.9,1.3-13.3c0.3,3.3,0.8,15.6,2.8,17.5
	c1.1,1,2.8,1,4.1,0.8c4.2-0.5,10.2-2.2,12.9-5.7c0.6-0.8,1-1.9,1.4-2.8c-0.8-3.6-2.7-8.7-2.5-12.3c0.4,1.2,0.7,2.4,1.7,3.2
	c0.2,3.7,2.6,8.4,0.7,11.9c-1.4,2.6-5.1,4.2-7.8,5.1c-3,0.9-8.3,2.3-11.2,0.8c-1.5-1.6-1.5-6.9-1.7-9.1c-0.3,2.6-0.4,7-2.2,9
	c-0.9,0.5-1.6,0.7-2.6,0.8c-4.3,0.2-10-1.5-13.1-4.4c-1-1-1.9-2.2-2.2-3.7c-0.5-2.9,2.1-11.6,2-15.6l0-0.3c0.1-0.1,0.2-0.1,0.3-0.3
	c2.4-2.8,0.6-7.5,1.3-10.9c0.8-3.6,2.8-6.9,3.4-10.5c0.7-4.1,0.7-8.5,0.8-12.7c0.3-11.7,0-23.2-1.9-34.8c-0.8-5.1-3.6-11.3-3.9-16
	c0-0.1,0-0.2,0-0.3c0.8,1.1,1.2,2.8,2.1,3.7c0.5,5.7,2.2,11.5,3,17.2c1.9,12.6,2.6,27.7,1.2,40.3c-0.6,5.4-3.6,10.1-4.2,15.6
	c-0.2,1.8-0.1,3.9,1.1,5.3c2.1,2.5,7.8,3,10.9,3.3c4.7,0.4,12.7-0.3,16.4-3.5c0.3-0.2,0.5-0.5,0.7-0.7c0.2-0.3,0.4-0.5,0.6-0.8
	c2.2-3.9-3.7-15.3-4.9-19.6c-1.6-5.8-2.6-11.8-3.7-17.7c-2.2-12.3-4.2-24.7-3.6-37.2c0.2-4,1.3-8,1.7-12l0.2-0.3
	c0.8-4-1.8-9.9-3-13.8C170.8,531.4,170.4,528.4,170,525.3z"/>
<path class="st8" d="M185.2,635.7c0.5,0.8,1,1.6,1.6,2.4l0.6,0l1.7,4.5c-0.2,3.6,1.7,8.7,2.5,12.3c-0.3,1-0.7,2-1.4,2.8
	c-2.7,3.5-8.6,5.3-12.9,5.7c-1.4,0.2-3.1,0.2-4.1-0.8c-2-1.9-2.5-14.2-2.8-17.5c-0.4,4.4-0.7,8.9-1.3,13.3c-0.2,1.4-0.4,3.5-1.6,4.4
	c-1.1,0.7-2.9,0.5-4.1,0.3c-3.8-0.6-8.7-2.1-11-5.4c-2.3-3.3,1.7-16.5,2.5-20.6c0.3,0.4,0.7,0.7,1.1,0.9c5.4,3.6,14.4,3.6,20.5,2.3
	C179.8,639.7,183.3,638.6,185.2,635.7z"/>
<path class="st8" d="M30.6,431c0,0.1,0.1,0.1,0.1,0.2c1.6,2.7,5.1,5.2,8.1,5.9c1.2,0.3,2.4,0.2,3.4-0.5c3.1-2,3.7-8.6,4.4-11.9
	c0.1,2.4-2.3,16.9-3.3,18.7c-0.8,4.7-0.8,21.9,1.6,25.5l0.7,0c2.6-0.4,5-0.2,7.3,1.4c3.7,2.7,3.7,9.4,5.7,11.6c0.1,0,0.1,0,0.2,0.1
	c0.6,0.2,1,0.4,1.5,0.7l0.4-0.3c1.7,4.5,5.1,15.3,7.3,18.7c-0.1,0-0.2,0-0.3,0c-3.4-0.5-6.7-3.8-10.1-1.5c-1.6,1.1-2.4,3.2-2.7,5
	c-0.4,2.6-0.1,6,1.5,8.2c0.3,0.4,0.8,1,1.2,1.2c-0.4,1.7,0.6,3,1.4,4.4c0.7,1.2,2,3.3,3.2,3.9l0.5,0c-0.2,1.6-0.2,3.8-1.6,4.9
	c-1.2,0.9-2.6,0.9-4,0.6c-1.5-0.3-3.8-0.4-5.2-1c0,0.1-0.1,0.1-0.1,0.2c-1.3,1.6-3.3,2.1-3.1,4.6c0.1,1.7,1.3,3.1,2.6,4.2
	c1.9,1.6,4.7,2.9,7.2,2.6c0.7-0.1,1.3-0.4,1.8-0.8c0-1.2,0.4-2.5,0.7-3.7c0-0.1,0-0.1,0.1-0.2c1.1-3.6,1.2-7.5,2.6-11.2
	c1.3-3.4,2.8-6.7,4.5-9.9c0.8-1.5,1.9-3.2,2.4-4.8c2.6,10.1,5.7,20.4,6.1,30.9c0.1,2.9,0.1,5.8-0.4,8.7c-1.1,6.5-5,14.8-2,21.3
	l0.4-0.1c0.4,0.8,0.5,1.4,1.3,1.9c0.9,0.6,1.6,1.2,2.7,1.3l0.1,0c-0.2,5.2,2,35.5-0.4,38.5c-0.1,11.1-3.2,21.5-6,32.1
	c-0.5,1.8-0.7,3.7-1.2,5.5c0.3,0.7,0.3,1.1,1,1.4c2.7,2.6,9.3,2.7,12.8,2.7c3.8,0,9.8-0.2,12.7-3.1c0.4-0.1,0.8-0.3,1.1-0.6
	c1-1,0.9-2.7,0.8-4c-0.4-4.2-2-8.3-3.1-12.3c-0.7-2.6-1.3-5.3-1.8-8c-0.5-2.7-0.9-5.4-1.2-8.1c-1.3-13.3-1.4-26.9,1.1-40.1
	c1.3-6.5,3.8-12.5,4-19.2c0.3-4.9-1.3-9.8-2.3-14.5c-0.3-2.1-0.7-4.2-1.1-6.3c0.3-5.1,0-11.3-1-16.4c1.2-3.7,0.7-17,0.7-21.3
	l0.6-0.9c0.2,1,0.1,1.4,0.8,2.1l13.8,1.1l10.9-1.4c-0.1,0.1-3.5,1-6.9,1.7c-8.4,1.7-18.2-0.5-18.3-0.4c-1.4,3.4,0.2,32.4,0.7,37.4
	c0.7,6.7,3.3,13.4,2.9,20.2c-0.4,6.8-3.6,13.2-4.6,19.9c-2.6,17.4-2.4,37.5,2.2,54.5c0.6,2.2,1.6,6.2,3.4,7.7
	c-1.9,8.7,6.5,22.7,3.7,31.9c-0.5,1.8-1.6,3.2-3.3,4c-3.5,1.8-13.3,4-17.1,2.7c-0.9-3.6-1-7.9-1.5-11.6c-0.2,2.2-0.6,10.2-2.3,11.4
	c-0.9,0.6-2.3,0.5-3.3,0.4c-4-0.5-11-1.8-13.6-5.3c-2.3-3,0.2-10.3,0.8-13.8c-2.4,1.7-5.4,2.5-8.2,3.1c-2.8,0.6-7.9,1.8-10.5,0.1
	c-0.7-3.4-0.8-7.1-1.2-10.5c-0.2,2.7-0.5,5.6-1,8.3c-0.2,1-0.4,2-1.3,2.5c-2.2,1.2-7.3-0.3-9.7-0.9c-3.3-0.9-6.7-2-8.5-5
	c-1.7-6.6,2.8-12.8,3.2-19.2c0.9-1.5,1.7-2.8,2.3-4.4c-0.4-1.6-0.6-3.2-0.8-4.8c0.7-0.6,4.2-7,4.9-8.3c7-12.8,11.1-45.8,9.9-60.7
	c-0.4-4.7-3.2-9-3.3-13.6c0-4.7,3.1-9,4.1-13.6c3.3-14.5-2.8-28.8-6.8-42.4c1.8,1.8,2.2,5,3.9,7.1c1.3-0.9,3.7,0.5,6-1.4
	c0.8-0.7,1.1-1.7,1.2-2.7c0.3-4.3-2.4-7.2-5-10.2l-0.1-0.2c-0.2,0.1-0.5,0.1-0.7,0.2c-2,0.4-5,0.4-6.7-0.8c-3.3-2.5-4-10.2-4.6-14.1
	c0.9,0.3,2.2,0.3,3.1,0.1c1.7-0.4,4-1.5,4.9-3.2c2.1-3.8-3.1-9-4.2-12.6l0-0.1c0.5-1.3,0.9-2.8,1.2-4.2c0.5-2,1.2-4.8-0.1-6.7
	c-1.5-2.2-4.5,0-6.6-0.4c-0.1,0-0.1,0-0.2-0.1C29.6,437.9,30,434.4,30.6,431z M60.8,534c0,2,0,3.9,0.4,5.8c0.8,4.2,2.9,8.5,2.6,12.8
	c-0.4,5.7-3.2,11.2-4.3,16.9c-2.6,13.9-4.2,35.9-0.9,49.5c0.8,3.3,3.1,6.1,4,9.4c0.9,3.2-1.2,5.8-0.1,9.1c0.3,1,0.5,2.2,1.4,2.8
	c1.3,1.7,2,5.7,3.1,6.7l0.4-0.2l0.2-0.3c0.7-0.8,3-9.5,3.4-11.1c0.2-0.1,0.3-0.2,0.5-0.4c1.4-2.1,1.8-6,2.3-8.5
	c2.6-13.2,4.7-27.6,3.6-41.1c-0.5-5.8-2.2-11-3.3-16.7c-3-6.5,0.8-14.8,2-21.3c0.5-2.9,0.5-5.8,0.4-8.7C76,528.5,73,518.1,70.3,508
	c-0.5,1.6-1.6,3.2-2.4,4.8c-1.6,3.2-3.1,6.5-4.5,9.9c-1.4,3.6-1.5,7.6-2.6,11.2C60.9,533.9,60.8,534,60.8,534z"/>
<path class="st5" d="M42.6,585.4c1.7,6.7-3.2,26.7-5.6,33.6c-1.8,5.1-4.9,10.5-5.3,15.9c-0.8-0.2-1.1-0.4-1.6-1.1
	c-1.2-1.6-0.7-3.8,0-5.6c1.2-2.9,3.4-5.4,4.5-8.3C39,608.7,40.5,597.1,42.6,585.4z"/>
<path class="st14" d="M75.7,570.7c0.9,0.6,1.6,1.2,2.7,1.3l0.1,0c-0.2,5.2,2,35.5-0.4,38.5c-0.1,11.1-3.2,21.5-6,32.1
	c-0.5,1.8-0.7,3.7-1.2,5.5l-0.5,0.1c-0.5-0.2-0.6-0.2-0.9-0.6c-0.9-1.2-0.7-2.9-0.4-4.3c1-4.4,3.6-8.7,4.9-13.1
	c2.1-7.3,2.6-15.2,3.7-22.7c0.3-7.2,0.7-14.4,0.2-21.6C77.5,580.7,76.5,575.8,75.7,570.7z"/>
<path class="st2" d="M68.3,675c-1.3-1-1.5-2.2-1.7-3.8c-0.5-4.3,2.1-17,4.8-20.3c0.2-0.2,0.1-0.2,0.4-0.2c1.2-0.1,3.7,1.4,5.1,1.7
	c5,1.2,16.1,1.9,20-1.9c0.3-0.3,0.6-0.6,0.8-0.9c1.1,5,4.5,20.7,1.7,24.7c-0.3,0.4-0.5,0.7-1,0.8c-0.4,0.5-0.8,0.8-1.3,1.1
	c-3.1,1.5-9,2.8-12.3,1.6c-1.4-2.7-1.9-15.1-2.4-19.2c-1,4.9-0.9,15.1-3.3,19c-1.2,0.2-2.3,0.2-3.5,0.1C73,677.5,70,677.1,68.3,675z
	"/>
<path class="st10" d="M34.6,452.5c0.5-1.3,0.9-2.8,1.2-4.2c0.5-2,1.2-4.8-0.1-6.7c-1.5-2.2-4.5,0-6.6-0.4c-0.1,0-0.1,0-0.2-0.1
	c0.8-3.3,1.2-6.8,1.7-10.2c0,0.1,0.1,0.1,0.1,0.2c1.6,2.7,5.1,5.2,8.1,5.9c1.2,0.3,2.6,0,3.7-0.7c3.1-2,3.4-8.4,4.1-11.8
	c0.1,2.4-2.3,16.9-3.3,18.7c-0.8,4.7-0.8,21.9,1.6,25.5l0.7,0c2.6-0.4,5-0.2,7.3,1.4c3.7,2.7,3.7,9.4,5.7,11.6c0.1,0,0.1,0,0.2,0.1
	c0.6,0.2,1,0.4,1.5,0.7l0.4-0.3c1.7,4.5,5.1,15.3,7.3,18.7c-0.1,0-0.2,0-0.3,0c-3.4-0.5-6.7-3.8-10.1-1.5c-1.6,1.1-2.4,3.2-2.7,5
	c-0.4,2.6-0.1,6,1.5,8.2c0.3,0.4,0.8,1,1.2,1.2c-0.4,1.7,0.6,3,1.4,4.4c0.7,1.2,2,3.3,3.2,3.9l0.5,0c-0.2,1.6-0.2,3.8-1.6,4.9
	c-1.2,0.9-2.6,0.9-4,0.6c-1.5-0.3-3.8-0.4-5.2-1c0,0.1-0.1,0.1-0.1,0.2c-1.3,1.6-3.3,2.1-3.1,4.6c0.1,1.7,1.3,3.1,2.6,4.2
	c1.9,1.6,4.7,2.9,7.2,2.6c0.7-0.1,1.3-0.4,1.8-0.8c0.3,3.1,0.7,8.4,2.8,10.9c0.6,2.7,0.4,5.6-1,8c-0.1,0.2-0.2,0.3-0.4,0.5
	C57,576.6,54,596,57.2,616c0.3,1.8,0.5,3.7,1.2,5.4c1.1,2.9,3.2,5.7,3.5,8.8c0.2,2.8-1.2,4.8-3.5,6.3c-5.6,3.5-14.5,3.5-20.7,2.1
	c-1.7-0.4-4.5-1.2-5.5-2.8c-0.2-0.3-0.3-0.6-0.4-0.8c0.3-5.4,3.5-10.9,5.3-15.9c2.4-6.9,7.3-26.9,5.6-33.6c-0.2-2.6,0.5-5.7,0.8-8.3
	c0.5-5,0.8-10,0.6-15.1c-0.2-5.4-2.8-9.8-3.2-14.7c0-0.1,0-0.2,0-0.3c-1.4-2.1,2.6-8.6,3.1-11.1c1.8-1.9,1.4-8.9,1.4-11.6
	c-0.1-3.7-0.9-7.4-0.7-11.2c-1.1-1.1-3.5-13.3-3.9-15.5c1.3-0.9,3.7,0.5,6-1.4c0.8-0.7,1.1-1.7,1.2-2.7c0.3-4.3-2.4-7.2-5-10.2
	l-0.1-0.2c-0.2,0.1-0.5,0.1-0.7,0.2c-2,0.4-5,0.4-6.7-0.8c-3.3-2.5-4-10.2-4.6-14.1c0.9,0.3,2.2,0.3,3.1,0.1c1.7-0.4,4-1.5,4.9-3.2"
	/>
<path class="st3" d="M39.2,471l0.7,0.5c0.4,0.8,0.3,1.6,0.2,2.5c-0.2,1.1-0.7,2.6-1.6,3.2c-0.6,0.4-0.8,0.3-1.5,0.2l-0.8,0.2
	l-0.4-0.4C35.9,475,37.9,472.7,39.2,471z"/>
<path class="st3" d="M44.6,513.1c0.1,0.1,0.1,0.1,0.2,0.2c2.5,2.7,10,1.2,9.9,6.5c0,1-0.7,1.9-1.4,2.5c-1.6,1.3-4.5,2.6-6.5,2.3
	c-0.5-0.1-0.9-0.2-1.4-0.3C45.2,520.5,44.5,516.8,44.6,513.1z"/>
<path class="st3" d="M43.9,535.8l0.4,1.2c2.4,1.2,7.7,1.6,8.5,4.5c0.3,1,0,2.4-0.6,3.3c-0.9,1.5-2.5,2-4.1,2.4
	c-2.6,0.6-4.7-0.9-7.2-1.2c0,0.3-0.1,0.6-0.1,0.9C39.4,544.8,43.4,538.3,43.9,535.8z"/>
<path class="st3" d="M54.1,548.4c1,0.4,2.3,0.2,3.5,0.3c1.7,0.2,3.3,0.6,4.9,1.2l0.4-1.3c0.6,2.7,0.4,5.6-1,8
	c-0.1,0.2-0.2,0.3-0.4,0.5c-0.9,0.3-1.9,0.6-2.8,0.7c-2.1,0.2-5.3-0.1-7-1.4c-0.7-0.6-1.1-1.3-1.1-2.2c-0.1-2.8,1.9-3.8,3.5-5.6
	L54.1,548.4z"/>
<path class="st2" d="M45.6,468.9c2.6-0.4,5-0.2,7.3,1.4c3.7,2.7,3.7,9.4,5.7,11.6c-0.1,2.1-0.1,4.8-1.1,6.6
	c-0.5,0.9-1.1,1.6-2.1,1.9c-1,0.3-2-0.2-2.9-0.7c-3.8-2.4-6.6-9.4-7.4-13.7C44.5,473.7,44.2,471,45.6,468.9z"/>
</svg>
